<svg xmlns="http://www.w3.org/2000/svg" viewBox="0 0 102.95 137.9"><defs><style>.cls-1{fill:#fcfcfd;}.cls-2{fill:#0470b9;}.cls-3{fill:#0b0b0b;}.cls-4{fill:#080808;}.cls-5{fill:#111;}.cls-6{fill:#2ba8df;}.cls-7{fill:#cacdcf;}.cls-8{fill:#cbcdce;}.cls-9{fill:#caced0;}.cls-10{fill:#2ba9df;}.cls-11{fill:#c3cbce;}.cls-12{fill:#fafcfd;}</style></defs><title>Asset 16</title><g id="Layer_2" data-name="Layer 2"><g id="Layer_1-2" data-name="Layer 1"><path class="cls-1" d="M95,137.9H0V0H103C103,45.92,95,91.9,95,137.9ZM94.52,30.07H4.1C5.58,46.76,7,63.25,8.51,79.75c1.19,13.35,2.4,26.7,3.53,40.06.14,1.68.78,2.35,2.44,2.81,11.14,3.1,22.24,6.36,33.37,9.51a5.19,5.19,0,0,0,2.68,0c9.69-2.71,19.36-5.52,29-8.24,6.88-1.93,6.78-1.9,7.4-9.05C88.68,95,90.5,75.21,92.27,55.38,93,47,93.76,38.65,94.52,30.07ZM59.61,22.7H76.3v-10c-3.56,0-7,.05-10.36,0-.64,0-1.26-.62-1.89-1,.62-.33,1.24-.92,1.87-.94,3.46-.09,6.93,0,10.41,0V5.64H59.64v10.6H71.29l-.22,2.56H59.61ZM40.9,16.05H52.34v2.7H41v3.9H57.55v-10c-3.56,0-7,0-10.36,0-1.25,0-2.24-.1-1.51-2.11H57.52V5.61H40.9ZM22.29,5.55V22.65H38.7V18.38H27.44V10.79H38.77V5.55Z"/><path class="cls-2" d="M94.52,30.07C93.76,38.65,93,47,92.27,55.38,90.5,75.21,88.68,95,87,114.85c-.62,7.15-.52,7.12-7.4,9.05-9.69,2.72-19.36,5.53-29,8.24a5.19,5.19,0,0,1-2.68,0c-11.13-3.15-22.22-6.41-33.37-9.51-1.65-.46-2.29-1.13-2.44-2.81C10.91,106.45,9.7,93.1,8.51,79.75,7,63.25,5.58,46.76,4.1,30.07ZM38,99.17c-3-.31-3.9-2.07-3.69-4.87a14.55,14.55,0,0,0-.4-3.95c-.1-.51-.68-1.3-1.06-1.32-3.36-.1-6.73-.06-10.4-.06l.52,4c.36,4,.65,8.08,1.14,12.1a2.7,2.7,0,0,0,1.62,1.74c2.51.81,5.1,1.41,7.67,2.07q8,2,16.06,4v11.44c1.92-.54,3.5-1,5.08-1.43,7.6-2.07,15.21-4.1,22.79-6.26.83-.24,2-1.2,2.06-1.94.53-4.19.78-8.41,1.12-12.62.37-4.54.69-9.09,1.11-13.62.76-8.24,1.58-16.47,2.37-24.71.47-4.94,1-9.88,1.4-14.83.34-3.75.61-7.51.91-11.13-.26-.2-.33-.29-.39-.29-11.65,0-23.29-.11-34.94-.05-.49,0-1.37,1.07-1.4,1.68-.15,2.9-.08,5.82-.08,8.73H18.29c.32,3.19.64,5.91.85,8.63.12,1.57.84,2.07,2.39,2.06,8.73,0,17.46,0,26.2.07a12.32,12.32,0,0,1-1.83,1.21c-7.71,3.36-15.42,6.71-23.16,10-1.44.61-2.13,1.28-1.88,2.94a46.32,46.32,0,0,1,.56,6.71c0,2.21.71,3,3.05,2.93,8.32-.14,16.65,0,25,0l0,18.4a19.18,19.18,0,0,1-2.44-.09C44,100.23,41,99.69,38,99.17Z"/><path class="cls-3" d="M59.61,22.7V18.8H71.07l.22-2.56H59.64V5.64H76.33v5.07c-3.48,0-6.95,0-10.41,0-.63,0-1.25.61-1.87.94.63.33,1.25.94,1.89,1,3.4.1,6.8,0,10.36,0v10Z"/><path class="cls-4" d="M40.9,16.05V5.61H57.52v4.92H45.68c-.73,2,.26,2.12,1.51,2.11,3.4,0,6.79,0,10.36,0v10H41v-3.9H52.34v-2.7Z"/><path class="cls-5" d="M22.29,5.55H38.77v5.24H27.44v7.59H38.7v4.27H22.29Z"/><path class="cls-6" d="M49.43,47.88c0-2.91-.07-5.83.08-8.73,0-.61.91-1.68,1.4-1.68,11.65-.05,23.29,0,34.94.05.07,0,.13.09.39.29-.29,3.62-.57,7.38-.91,11.13-.44,4.94-.92,9.89-1.4,14.83-.79,8.24-1.61,16.47-2.37,24.71-.42,4.54-.74,9.08-1.11,13.62-.34,4.21-.59,8.43-1.12,12.62-.09.74-1.23,1.7-2.06,1.94-7.57,2.17-15.19,4.19-22.79,6.26-1.58.43-3.15.89-5.08,1.43,0-4,0-7.72,0-11.44a2.4,2.4,0,0,0,0-.4c7.89-2,15.78-4,23.64-6.14.61-.17,1.22-1.43,1.31-2.24.71-6.86,1.33-13.74,1.92-20.62.35-4,.59-8.09.9-12.5h-23a4.76,4.76,0,0,1,2.08-1.54c6.55-2.87,13.12-5.7,19.65-8.62.84-.37,2.07-1.06,2.16-1.73.49-3.52.66-7.08,1-10.65a7.61,7.61,0,0,0-1.46-.35q-14.1,0-28.19.07A1.15,1.15,0,0,0,49.43,47.88Z"/><path class="cls-7" d="M49.45,82.4c-8.33,0-16.65-.13-25,0-2.34,0-3.05-.72-3.05-2.93a46.32,46.32,0,0,0-.56-6.71c-.25-1.66.45-2.34,1.88-2.94,7.75-3.27,15.45-6.62,23.16-10a12.2,12.2,0,0,0,1.83-1.21l1.68,1.27q0,11,.07,22.06Z"/><path class="cls-8" d="M49.47,112.52a2.4,2.4,0,0,1,0,.4q-8-2-16.06-4c-2.57-.65-5.15-1.25-7.67-2.07a2.7,2.7,0,0,1-1.62-1.74c-.49-4-.78-8.06-1.14-12.1l.62-3.05c2.15,0,4.23.16,6.27,0,2.46-.24,3.46.49,3.2,3.1a18.48,18.48,0,0,0,.49,4.63c.3,1.88,2.56,2.65,4.45,1.56,3,.52,6,1.06,9.08,1.55a19.21,19.21,0,0,0,2.44.09,2.69,2.69,0,0,1,0,.36Z"/><path class="cls-9" d="M49.41,59.92l-1.68-1.27c-8.73,0-17.46-.1-26.19-.07-1.56,0-2.27-.49-2.39-2.06-.21-2.72-.53-5.44-.85-8.63H49.43a1.16,1.16,0,0,1,0,.33Q49.43,54.06,49.41,59.92Z"/><path class="cls-10" d="M49.45,82.4l0-.42,14.27.4.16.53c-.29,3.9-.72,7.8-.82,11.7,0,1.86-.76,2.57-2.44,3-3.76,1.06-7.46,2.32-11.18,3.5a2.69,2.69,0,0,0,0-.36Q49.46,91.6,49.45,82.4Z"/><path class="cls-11" d="M38,99.17c-1.89,1.09-4.15.32-4.45-1.56A18.48,18.48,0,0,1,33,93c.27-2.61-.74-3.34-3.2-3.1-2,.2-4.12,0-6.27,0L22.93,93l-.52-4c3.66,0,7,0,10.4.06.38,0,1,.81,1.06,1.32a14.55,14.55,0,0,1,.4,3.95C34,97.1,35,98.86,38,99.17Z"/><path class="cls-12" d="M49.47,101.16c3.72-1.18,7.42-2.44,11.18-3.5,1.68-.47,2.39-1.19,2.44-3,.1-3.91.53-7.8.82-11.7l-.16-.53L49.48,82q0-11-.07-22.06,0-5.85.06-11.7,14.1,0,28.19-.07a7.61,7.61,0,0,1,1.46.35c-.29,3.58-.47,7.13-1,10.65-.09.67-1.32,1.36-2.16,1.73-6.53,2.91-13.1,5.75-19.65,8.62A4.76,4.76,0,0,0,54.27,71h23c-.31,4.4-.56,8.45-.9,12.5-.59,6.88-1.2,13.75-1.92,20.62-.08.81-.7,2.07-1.31,2.24-7.85,2.14-15.75,4.12-23.64,6.14Q49.47,106.84,49.47,101.16Z"/><path class="cls-7" d="M63.74,82.38l.16.53Z"/></g></g></svg>