<?xml version="1.0" encoding="utf-8"?>
<!-- Generator: Adobe Illustrator 21.1.0, SVG Export Plug-In . SVG Version: 6.00 Build 0)  -->
<svg version="1.1" id="Layer_1" xmlns="http://www.w3.org/2000/svg" xmlns:xlink="http://www.w3.org/1999/xlink" x="0px" y="0px"
	 viewBox="0 0 100 100" style="enable-background:new 0 0 100 100;" xml:space="preserve">
<style type="text/css">
	.st0{fill:#00AEEF;}
	.st1{fill:none;stroke:#00AEEF;stroke-width:0.931;stroke-miterlimit:10;stroke-dasharray:11.172;}
	.st2{fill:#FFFFFF;}
</style>
<circle class="st0" cx="50" cy="50" r="40">

	<animateTransform attributeName="transform"
		attributeType="XML"
		type="rotate"
		from="0 50 50"
		to="360 50 50"
		dur="10s"
		repeatCount="indefinite" />

</circle>
<circle class="st1" cx="50" cy="49" r="47.5"/>
<path class="st2" d="M31.5,63L31.5,63C29,63,27,61,27,58.5v-18c0-2.5,2-4.5,4.5-4.5h0c2.5,0,4.5,2,4.5,4.5v18C36,61,34,63,31.5,63z"
	/>
<path class="st2" d="M31.5,63L31.5,63C29,63,27,61,27,58.5v-18c0-2.5,2-4.5,4.5-4.5h0c2.5,0,4.5,2,4.5,4.5v18C36,61,34,63,31.5,63z"
	/>
<path class="st2" d="M44.5,63L44.5,63C42,63,40,61,40,58.5v-18c0-2.5,2-4.5,4.5-4.5h0c2.5,0,4.5,2,4.5,4.5v18C49,61,47,63,44.5,63z"
	/>
<path class="st2" d="M57.5,63L57.5,63C55,63,53,61,53,58.5v-18c0-2.5,2-4.5,4.5-4.5h0c2.5,0,4.5,2,4.5,4.5v18C62,61,60,63,57.5,63z"
	/>
<path class="st2" d="M70.5,63L70.5,63C68,63,66,61,66,58.5v-18c0-2.5,2-4.5,4.5-4.5h0c2.5,0,4.5,2,4.5,4.5v18C75,61,73,63,70.5,63z"
	/>
</svg>
