<svg xmlns="http://www.w3.org/2000/svg" viewBox="0 0 99.5 137.88"><defs><style>.cls-1{fill:#fdfdfd;}.cls-2{fill:#e44e28;}.cls-3{fill:#060606;}.cls-4{fill:#070707;}.cls-5{fill:#f0652a;}.cls-6{fill:#eaeae9;}.cls-7{fill:#fdfcfb;}.cls-8{fill:#eae8e7;}.cls-9{fill:#f0662c;}.cls-10{fill:#e34d26;}</style></defs><title>Asset 15</title><g id="Layer_2" data-name="Layer 2"><g id="Layer_1-2" data-name="Layer 1"><path class="cls-1" d="M99.5,137.88H1C1,92,0,46,0,0H99.5ZM3,30.14c.22,2.6.42,4.92.62,7.23Q5.48,58.51,7.35,79.65q1.81,20.52,3.6,41A2.48,2.48,0,0,0,13,123.27c11.19,3,22.35,6.18,33.54,9.24a5.74,5.74,0,0,0,2.88.08c11.34-3.1,22.66-6.3,34-9.4a2.33,2.33,0,0,0,2-2.4c.66-8,1.38-16.09,2.09-24.13q1.9-21.39,3.81-42.78C92,46,92.71,38.16,93.41,30.14Zm46.16-8h5.57V14.81l.44-.16,3.54,5.23,3.58-5.32.45.14v7.5h5.64V5c-2.07,0-4.42-.69-5.77.18-1.69,1.09-2.55,3.47-4,5.67-1.77-4.47-4.27-7.53-9.43-5.54Zm-37.74,0h5.87V16.52h5.18v5.68h5.67V5.09H22.25v5.29h-5V5H11.42ZM46.58,5H30.82v5.76h4.93V22.14h6V10.77l4.84-.22Zm30.48,11.4V5.07H71.19c0,5.47,0,10.78,0,16.09a7.51,7.51,0,0,0,.16,1H85V16.43Z"/><path class="cls-2" d="M3,30.14H93.41c-.7,8-1.38,15.88-2.08,23.74q-1.9,21.39-3.81,42.78c-.71,8-1.43,16.08-2.09,24.13a2.33,2.33,0,0,1-2,2.4c-11.34,3.1-22.66,6.3-34,9.4a5.74,5.74,0,0,1-2.88-.08c-11.19-3.06-22.35-6.21-33.54-9.24a2.48,2.48,0,0,1-2.08-2.57q-1.77-20.52-3.6-41Q5.49,58.51,3.61,37.37C3.41,35.06,3.21,32.74,3,30.14Zm45.42,71-.94-.15c-3.52-.89-7.06-1.7-10.54-2.74a2.78,2.78,0,0,1-1.34-2c-.4-2.41-.59-4.86-.85-7.29H23.34c.5,5.73,1,11.33,1.52,16.92a2,2,0,0,0,1.23,1.24c7.32,2,14.67,4,22,6l.11.26V125c2.65-.7,4.79-1.25,6.92-1.82,5.88-1.59,11.72-3.31,17.64-4.75,5.07-1.24,5.62-2,5.88-7.39.29-6.11,1-12.2,1.48-18.29q1-11,2-22,.57-6.3,1.16-12.59.9-9.37,1.83-18.74c.15-1.49-.42-2-2-2q-16.42.08-32.84,0c-1.68,0-2.14.61-2.09,2.19.1,3.08,0,6.16,0,9.24H19.76l3.09,34.53H48.22l-.05.15.28,17.68Z"/><path class="cls-3" d="M49.16,22.17c0-5.74,0-11.32,0-16.89,5.16-2,7.66,1.07,9.43,5.54,1.48-2.21,2.34-4.58,4-5.67C64,4.28,66.31,5,68.38,5V22.19H62.74v-7.5l-.45-.14-3.58,5.32-3.54-5.23-.44.16v7.36Z"/><path class="cls-3" d="M11.42,22.19V5h5.82v5.35h5V5.09h5.89V22.21H22.47V16.52H17.29v5.67Z"/><path class="cls-4" d="M46.58,5v5.52l-4.84.22V22.14h-6V10.78H30.82V5Z"/><path class="cls-4" d="M77.06,16.43H85V22.2H71.36a7.51,7.51,0,0,1-.16-1c0-5.31,0-10.62,0-16.09h5.87Z"/><path class="cls-5" d="M48.22,48.81c0-3.08.05-6.16,0-9.24-.05-1.58.4-2.2,2.09-2.19q16.42.09,32.84,0c1.54,0,2.11.55,2,2q-.93,9.37-1.83,18.74-.6,6.29-1.16,12.59-1,11-2,22c-.53,6.09-1.19,12.18-1.48,18.29-.26,5.39-.81,6.15-5.88,7.39-5.91,1.45-11.76,3.16-17.64,4.75-2.13.58-4.27,1.13-6.92,1.82,0-4,0-7.81,0-11.59,7.08-2,14.14-4,21.24-5.94a2.5,2.5,0,0,0,2.2-2.67c.51-6.79,1.2-13.57,1.8-20.35.36-4.1.67-8.2,1-12.45H48.18l0-.18q0-5.65,0-11.31l0-.19H75.52l1-11.33H48.18Z"/><path class="cls-6" d="M48.22,83.34H22.85L19.76,48.81H48.22l0,.18q0,5.66,0,11.33l0,.19h-16l1.08,11.31H48.22l0,.18Z"/><path class="cls-7" d="M48.22,83.34l0-11.35H74.46c-.35,4.25-.66,8.35-1,12.45-.6,6.78-1.29,13.56-1.8,20.35a2.5,2.5,0,0,1-2.2,2.67c-7.1,1.9-14.17,3.95-21.24,5.94l-.11-.26q.06-5.85.12-11.7a.58.58,0,0,0,.2-.29h0c3.68-1,7.38-1.86,11-2.9a2.14,2.14,0,0,0,1.22-1.49c.5-4.36.88-8.73,1.31-13.29H48.17Z"/><path class="cls-8" d="M48.21,101.45q-.06,5.85-.12,11.7c-7.34-2-14.68-3.94-22-6a2,2,0,0,1-1.23-1.24c-.56-5.58-1-11.18-1.52-16.92H34.74c.27,2.43.45,4.88.85,7.29a2.78,2.78,0,0,0,1.34,2c3.48,1,7,1.85,10.54,2.74Z"/><path class="cls-9" d="M48.17,83.49H62c-.43,4.56-.81,8.93-1.31,13.29a2.14,2.14,0,0,1-1.22,1.49c-3.66,1-7.35,2-11,2.9Q48.31,92.33,48.17,83.49Z"/><path class="cls-9" d="M48.21,101.45l-.74-.44.94.15A.57.57,0,0,1,48.21,101.45Z"/><path class="cls-1" d="M48.18,60.32q0-5.66,0-11.33H76.56l-1,11.33Z"/><path class="cls-10" d="M48.22,71.82H33.35L32.26,60.51h16Q48.22,66.16,48.22,71.82Z"/></g></g></svg>