<svg xmlns="http://www.w3.org/2000/svg" viewBox="0 0 113.5 111"><defs><style>.cls-1{fill:#f67903;}.cls-2{fill:#261300;}.cls-3{fill:#120600;}.cls-4{fill:#fa7a00;}.cls-5{fill:#fc7b00;}.cls-6{fill:#281400;}</style></defs><title>Asset 19</title><g id="Layer_2" data-name="Layer 2"><g id="Layer_1-2" data-name="Layer 1"><path class="cls-1" d="M113.5,111H0V0H113.5ZM5.51,5A8.26,8.26,0,0,0,4.9,7.14q0,48.36,0,96.73A8.25,8.25,0,0,0,5.51,106c.66,0,1.33.12,2,.12H106c.66,0,1.33-.08,2-.12a8.25,8.25,0,0,0,.61-2.16q0-48.36,0-96.73A8.26,8.26,0,0,0,108,5c-.66,0-1.33-.12-2-.12H7.5C6.84,4.86,6.17,4.94,5.51,5Z"/><path class="cls-2" d="M108,106c-.66,0-1.33.12-2,.12H7.5c-.66,0-1.33-.08-2-.12Q5.51,55.5,5.51,5c.66,0,1.33-.12,2-.12H106c.66,0,1.33.08,2,.12Q108,55.5,108,106ZM83,77v-.48Q83,58.25,83,40v-.48l-8.42-.67V77.78ZM39.42,63.48l15.07,0c1.16,4.07,2.28,8.15,3.54,12.18.22.71,1,1.72,1.55,1.76,2.53.19,5.09.08,7.93.08-1.87-6.33-3.63-12.29-5.38-18.25-3.11-10.6-6.19-21.2-9.35-31.78-.25-.84-1-2.14-1.53-2.17-3.2-.21-6.42-.1-9.16-.1L27.32,77.53c2.41,0,4.4-.08,6.39,0,1.45.08,2-.49,2.35-1.87C37.08,71.59,38.28,67.54,39.42,63.48ZM83.5,28.92a4.55,4.55,0,0,0-4.69-5,4.5,4.5,0,0,0-4.93,4.71c-.07,3.05,1.67,4.88,4.67,4.91S83.45,31.85,83.5,28.92Z"/><path class="cls-3" d="M5.51,5q0,50.53,0,101.05a8.25,8.25,0,0,1-.61-2.16q0-48.36,0-96.73A8.26,8.26,0,0,1,5.51,5Z"/><path class="cls-3" d="M108,106Q108,55.5,108,5a8.27,8.27,0,0,1,.61,2.16q0,48.36,0,96.73A8.25,8.25,0,0,1,108,106Z"/><path class="cls-4" d="M39.42,63.48c-1.13,4.07-2.34,8.11-3.36,12.21-.35,1.39-.89,2-2.35,1.87-2-.11-4,0-6.39,0L42.08,25.22c2.74,0,6-.11,9.16.1.57,0,1.28,1.34,1.53,2.17C55.93,38.07,59,48.68,62.12,59.27c1.75,6,3.51,11.92,5.38,18.25-2.84,0-5.4.11-7.93-.08-.57,0-1.33-1.06-1.55-1.76-1.26-4-2.37-8.12-3.54-12.18a6.35,6.35,0,0,0-1.7-.52Q47,62.91,41.16,63A6.84,6.84,0,0,0,39.42,63.48Zm2.14-8.57H52.45c-1.82-6.54-3-12.95-5.18-19.08l-.89.1Z"/><path class="cls-5" d="M83,40q0,18.26,0,36.52A.67.67,0,0,0,83,77l-8.43.79V38.83l8.42.67A.72.72,0,0,0,83,40Z"/><path class="cls-4" d="M83.5,28.92c0,2.92-1.93,4.7-5,4.67s-4.73-1.86-4.67-4.91A4.5,4.5,0,0,1,78.81,24,4.55,4.55,0,0,1,83.5,28.92Z"/><path d="M39.42,63.48a6.84,6.84,0,0,1,1.75-.5q5.81-.07,11.62,0a6.35,6.35,0,0,1,1.7.52Z"/><path d="M83,40a.72.72,0,0,1,0-.48Z"/><path d="M83,77a.67.67,0,0,1,0-.48Z"/><path class="cls-6" d="M41.55,54.91l4.82-19,.89-.1c2.19,6.13,3.36,12.54,5.18,19.08Z"/></g></g></svg>