<svg xmlns="http://www.w3.org/2000/svg" viewBox="0 0 101.95 139.95"><defs><style>.cls-1{fill:#fefdfd;}.cls-2{fill:#e4a229;}.cls-3{fill:#161616;}.cls-4{fill:#050708;}.cls-5{fill:#e29900;}.cls-6{fill:#010202;}.cls-7{fill:#f0be27;}.cls-8{fill:#ecebe8;}.cls-9{fill:#ebebe9;}.cls-10{fill:#f0bf2a;}.cls-11{fill:#e39c0f;}.cls-12{fill:#fefdfc;}.cls-13{fill:#e4a22a;}.cls-14{fill:#efbb0f;}.cls-15{fill:#efbb10;}</style></defs><title>Asset 17</title><g id="Layer_2" data-name="Layer 2"><g id="Layer_1-2" data-name="Layer 1"><path class="cls-1" d="M97,140H9C9,93.3,0,46.65,0,0H102C102,46.65,97,93.3,97,140ZM44.2,6.27l-.57.57V18H36.11l-.64.61V23l.63.54H48.56l.6-.54V6.84l-.61-.57ZM52.37,23l.52.54h15l.65-.56c.69-2.73-.31-4.57-2.53-6.31-1.8-1.41-3-3.54-4.87-5.79h7.22V6.26H52.38c-1.26,6.32,5.33,8,7.06,12.22l-7,.82a.51.51,0,0,0,0,.58ZM5.78,32.32c.19,2.58.34,5.15.57,7.73,1.39,15.23,2.83,30.46,4.19,45.7q1.7,19,3.24,38a3.11,3.11,0,0,0,2.65,3.17c11.16,3,22.28,6.19,33.44,9.2a8.38,8.38,0,0,0,4.18,0c10.95-3,21.84-6.16,32.81-9,2.34-.62,3.18-1.63,3.34-3.92.59-8.25,1.28-16.49,2-24.73q2.94-33,5.94-66.08a11.08,11.08,0,0,0-2.46-.57q-43.73,0-87.46,0A11.09,11.09,0,0,0,5.78,32.32Z"/><path class="cls-2" d="M98.17,32.32q-3,33-5.94,66.08c-.73,8.24-1.42,16.48-2,24.73-.16,2.29-1,3.3-3.34,3.92-11,2.89-21.86,6.07-32.81,9a8.38,8.38,0,0,1-4.18,0c-11.16-3-22.28-6.18-33.44-9.2a3.11,3.11,0,0,1-2.65-3.17q-1.58-19-3.24-38C9.18,70.51,7.74,55.28,6.35,40c-.23-2.57-.38-5.15-.57-7.73ZM50.93,104c-1.41-.31-2.83-.56-4.22-.93-7.24-1.93-7.2-2-8.32-9.3-.12-.78-1-2-1.61-2-3.38-.2-6.78-.1-10.39-.1.5,5.57,1,10.8,1.41,16,.13,1.82.85,2.62,2.66,3.09,7.1,1.86,14.15,3.92,21.22,5.91,0,3,.07,6,0,9-.08,2.13.73,2.87,2.77,2.3,8.64-2.41,17.26-4.84,25.91-7.19a2.91,2.91,0,0,0,2.5-3.27c0-3.08.39-6.16.68-9.24.78-8.39,1.61-16.78,2.37-25.17.5-5.53.87-11.08,1.39-16.61.75-8.08,1.52-16.17,2.38-24.24.27-2.57-.81-3.11-3.17-3.09-10.56.11-21.13,0-31.7.06-.91,0-1.81.11-3.09.2,0,1.29,0,2.39,0,3.5l-.63.64H31.14l-.6.1A19.21,19.21,0,0,0,30,46c-.84,8.84-1.68,17.69-2.46,26.54-.39,4.37-.65,8.76-1,13.49H51.7c0,4.92,0,9.84-.07,14.76A15.59,15.59,0,0,1,50.93,104Z"/><path class="cls-3" d="M52.42,19.3l7-.82c-1.73-4.25-8.32-5.9-7.06-12.22H68.31V10.9H61.09c1.84,2.25,3.07,4.38,4.87,5.79,2.22,1.74,3.23,3.58,2.53,6.31l-.65.56h-15L52.37,23V19.89c.08-.05.22-.12.22-.15A2.7,2.7,0,0,0,52.42,19.3Z"/><path class="cls-4" d="M35.48,23V18.66l.64-.61h7.51V6.84l.57-.57h4.37l.61.57V23l-.6.54H36.1Z"/><path class="cls-5" d="M98.17,32.32H5.78a11.09,11.09,0,0,1,2.46-.57q43.73,0,87.46,0A11.08,11.08,0,0,1,98.17,32.32Z"/><path d="M44.2,6.27l-.57.57Z"/><path d="M49.17,6.84l-.61-.57Z"/><path d="M36.11,18l-.64.61Z"/><path class="cls-6" d="M52.42,19.3a2.7,2.7,0,0,1,.17.43s-.14.1-.22.15A.51.51,0,0,1,52.42,19.3Z"/><path d="M35.48,23l.63.54Z"/><path d="M48.56,23.55l.6-.54Z"/><path class="cls-6" d="M52.37,23l.52.54Z"/><path class="cls-6" d="M67.85,23.57l.65-.56Z"/><path class="cls-7" d="M51.67,42.9V39.4c1.28-.09,2.19-.2,3.09-.2,10.57,0,21.13.05,31.7-.06,2.37,0,3.45.52,3.17,3.09C88.77,50.3,88,58.39,87.25,66.47c-.51,5.53-.88,11.08-1.39,16.61-.76,8.39-1.59,16.78-2.37,25.17-.28,3.08-.64,6.16-.68,9.24a2.91,2.91,0,0,1-2.5,3.27C71.67,123.11,63,125.55,54.41,128c-2,.57-2.85-.17-2.77-2.3.12-3,0-6,0-9a.45.45,0,0,0,0-.32c7.56-2,15.13-3.94,22.64-6.07.7-.2,1.38-1.6,1.5-2.51.48-3.78.75-7.59,1.08-11.4.63-7.27,1.25-14.53,1.92-22.28H52.92l-1.24-.69,0-17.3.64-.2L66,57.46c.24,2.95.36,5.74.76,8.5.13.93.94,2.46,1.52,2.5,3.46.24,6.94.12,10.5.12l-2.27-25H52.91l-1.22-.63Z"/><path class="cls-8" d="M52.3,55.87l-.64.2a5.58,5.58,0,0,1-1.43.41c-3,0-6,0-9.3,0l-1.6,17.56H51.06l.62.28,0,11.46,0,.28H26.54c.35-4.73.61-9.11,1-13.49C28.32,63.74,29.16,54.89,30,46a19.21,19.21,0,0,1,.54-2.41,1.58,1.58,0,0,0,.6-.1H51l.63,0,.63.26Z"/><path class="cls-9" d="M51.68,116.64c-7.07-2-14.12-4-21.22-5.91-1.81-.47-2.53-1.27-2.66-3.09-.38-5.24-.91-10.46-1.41-16,3.61,0,7-.1,10.39.1.59,0,1.49,1.27,1.61,2,1.12,7.34,1.08,7.36,8.32,9.3,1.39.37,2.81.63,4.22.93l.75.59v11.75A.45.45,0,0,1,51.68,116.64Z"/><path class="cls-10" d="M51.68,104.56l-.75-.59a15.57,15.57,0,0,0,.7-3.14c.09-4.92.06-9.84.07-14.76l0-.28H66.07c-.46,5-.79,9.44-1.36,13.84-.09.69-1.2,1.54-2,1.79C59.07,102.58,55.36,103.54,51.68,104.56Z"/><path class="cls-11" d="M31.14,43.54a1.58,1.58,0,0,1-.6.1Z"/><path class="cls-11" d="M51.67,43.52l-.63,0,.63-.64h0Q51.67,43.22,51.67,43.52Z"/><path class="cls-12" d="M51.68,104.56c3.68-1,7.38-2,11-3.13.8-.25,1.91-1.1,2-1.79.57-4.4.9-8.83,1.36-13.84H51.66q0-5.73,0-11.46l1.24-.28H78.81c-.67,7.75-1.29,15-1.92,22.28-.33,3.8-.6,7.61-1.08,11.4-.12.91-.8,2.31-1.5,2.51-7.52,2.14-15.09,4.08-22.64,6.07Q51.68,110.44,51.68,104.56Z"/><path class="cls-12" d="M52.3,55.87q0-6,0-12.09l.61-.24H76.55l2.27,25c-3.56,0-7,.12-10.5-.12-.58,0-1.39-1.57-1.52-2.5-.4-2.75-.52-5.55-.76-8.5Z"/><path class="cls-13" d="M51.06,74.06H39.33l1.6-17.56c3.27,0,6.28,0,9.3,0a5.58,5.58,0,0,0,1.43-.41q0,8.65,0,17.3Z"/><path class="cls-14" d="M51.06,74.06l.62-.69,1.24.69-1.24.28Z"/><path class="cls-15" d="M52.91,43.54l-.61.24-.63-.26q0-.3,0-.61Z"/></g></g></svg>