<svg xmlns="http://www.w3.org/2000/svg" xmlns:xlink="http://www.w3.org/1999/xlink" viewBox="0 0 156.4 259.4"><defs><style>.cls-1,.cls-2{fill:none;}.cls-2{stroke:#231f20;stroke-width:0.72px;}.cls-3{fill:#231f20;}.cls-4{opacity:0.8;fill:url(#_10_lpi_10_);}</style><pattern id="_10_lpi_10_" data-name="10 lpi 10%" width="72" height="72" patternTransform="translate(-31.78 63.79) rotate(-60)" patternUnits="userSpaceOnUse" viewBox="0 0 72 72"><rect class="cls-1" width="72" height="72"/><line class="cls-2" x1="71.75" y1="68.4" x2="144.25" y2="68.4"/><line class="cls-2" x1="71.75" y1="54" x2="144.25" y2="54"/><line class="cls-2" x1="71.75" y1="39.6" x2="144.25" y2="39.6"/><line class="cls-2" x1="71.75" y1="25.2" x2="144.25" y2="25.2"/><line class="cls-2" x1="71.75" y1="10.8" x2="144.25" y2="10.8"/><line class="cls-2" x1="71.75" y1="61.2" x2="144.25" y2="61.2"/><line class="cls-2" x1="71.75" y1="46.8" x2="144.25" y2="46.8"/><line class="cls-2" x1="71.75" y1="32.4" x2="144.25" y2="32.4"/><line class="cls-2" x1="71.75" y1="18" x2="144.25" y2="18"/><line class="cls-2" x1="71.75" y1="3.6" x2="144.25" y2="3.6"/><line class="cls-2" x1="-0.25" y1="68.4" x2="72.25" y2="68.4"/><line class="cls-2" x1="-0.25" y1="54" x2="72.25" y2="54"/><line class="cls-2" x1="-0.25" y1="39.6" x2="72.25" y2="39.6"/><line class="cls-2" x1="-0.25" y1="25.2" x2="72.25" y2="25.2"/><line class="cls-2" x1="-0.25" y1="10.8" x2="72.25" y2="10.8"/><line class="cls-2" x1="-0.25" y1="61.2" x2="72.25" y2="61.2"/><line class="cls-2" x1="-0.25" y1="46.8" x2="72.25" y2="46.8"/><line class="cls-2" x1="-0.25" y1="32.4" x2="72.25" y2="32.4"/><line class="cls-2" x1="-0.25" y1="18" x2="72.25" y2="18"/><line class="cls-2" x1="-0.25" y1="3.6" x2="72.25" y2="3.6"/><line class="cls-2" x1="-72.25" y1="68.4" x2="0.25" y2="68.4"/><line class="cls-2" x1="-72.25" y1="54" x2="0.25" y2="54"/><line class="cls-2" x1="-72.25" y1="39.6" x2="0.25" y2="39.6"/><line class="cls-2" x1="-72.25" y1="25.2" x2="0.25" y2="25.2"/><line class="cls-2" x1="-72.25" y1="10.8" x2="0.25" y2="10.8"/><line class="cls-2" x1="-72.25" y1="61.2" x2="0.25" y2="61.2"/><line class="cls-2" x1="-72.25" y1="46.8" x2="0.25" y2="46.8"/><line class="cls-2" x1="-72.25" y1="32.4" x2="0.25" y2="32.4"/><line class="cls-2" x1="-72.25" y1="18" x2="0.25" y2="18"/><line class="cls-2" x1="-72.25" y1="3.6" x2="0.25" y2="3.6"/></pattern></defs><title>Asset 5</title><g id="Layer_2" data-name="Layer 2"><g id="Layer_1-2" data-name="Layer 1"><path class="cls-3" d="M131.94,246.7v-1.25H23a8.53,8.53,0,0,1-8.5-8.5V23a8.53,8.53,0,0,1,8.5-8.5h109a8.53,8.53,0,0,1,8.5,8.5v214a8.53,8.53,0,0,1-8.5,8.5v2.5a11,11,0,0,0,11-11V23a11,11,0,0,0-11-11H23a11,11,0,0,0-11,11v214a11,11,0,0,0,11,11h109Z"/><rect class="cls-4" x="13.2" y="13.2" width="129.6" height="234.4" rx="12.11" ry="12.11"/><path d="M27.37,90.19l3.37-19.74c1.42-8.37,7-14.87,11.62-14.87s5.4,3.41,5.4,6.74a27.3,27.3,0,0,1-.45,4.79l-4,23.07h6L52.79,70c1.5-8.77,6.82-14.46,11.32-14.46,4,0,5.47,2.68,5.47,6.82a28.07,28.07,0,0,1-.52,5.12l-3.9,22.67h6.07l4-23.23a43.3,43.3,0,0,0,.6-6.66C75.88,52.9,71.31,50,67.11,50c-5.47.08-10.12,3.09-13.35,8.77-.3-5-2.92-8.77-8.47-8.77-4.8,0-9.37,2.84-12.75,8.29h-.23l1-7.39H27.82c-.37,3.25-.9,7.07-1.65,11.45L21.3,90.19Z"/><path d="M119.86,49.71a13.61,13.61,0,0,1,1.88,6.9,11.86,11.86,0,0,1-1.39,5.62l-7.87,16.18c-.57,1.19-1.15,2.56-2.79,2.56s-2.21-1.36-2.79-2.56L99,62.23a11.86,11.86,0,0,1-1.39-5.62,13.6,13.6,0,0,1,1.88-6.9l7.37-15.42c.66-1.36,1.07-2.56,2.79-2.56s2.13,1.19,2.79,2.56Zm-.25-19.5c-2-4-5.33-7-9.92-7s-7.95,3-9.91,7L91.59,47.15a20,20,0,0,0-2.13,9.45c0,4.09,1.07,6.64,2.7,10.14L99.7,82.41c2,4.09,5.24,7.07,10,7.07s8-3,10-7.07l7.54-15.67c1.64-3.49,2.7-6,2.7-10.14a19.94,19.94,0,0,0-2.13-9.45Z"/><path class="cls-3" d="M64.28,169.78v.82A5.67,5.67,0,0,0,68.76,169,4.88,4.88,0,0,0,70,165.75v-.19c0-1.08-.19-2.41-.41-4a28.4,28.4,0,0,1-.33-3.11v0c0-.36,0-.8,0-1.31,0-4.07.64-12.63,1.92-25.59q.27-3.2.61-7.85c.22-3.09.38-5,.47-5.63v-.11a14.43,14.43,0,0,1,.26-1.9,15.37,15.37,0,0,0,.28-2.45,14.45,14.45,0,0,0-.21-2.17,9.52,9.52,0,0,0-.81-2.63l-.74.35.75-.33c-1-2.16-3.79-3.17-8.09-3.76h0a8.74,8.74,0,0,0-.89,0,4,4,0,0,0-3.85,2v0c-.56,1.22-.87,3.45-1.16,7q-.55,8.23-.54,16.64a6.43,6.43,0,0,1-.12,1.38,1.37,1.37,0,0,1-.1.3v0l-.13.08,0,.09v-.09h0l0,.09v.18l.18-.21-.18-.06v.27l.18-.21s0,0-.07-.13v0c-3.26-6.5-5.61-10.83-7.09-13.08-2.88-4.53-6.86-6.94-11.65-6.92h-.54a12.65,12.65,0,0,0-3.42.34,2.07,2.07,0,0,0-1.48,2.12,3.37,3.37,0,0,0,0,.39l.81-.09-.8-.19c-1,4.34-1.51,10.56-1.51,18.71a25.53,25.53,0,0,1-.66,5.45l0,.09v.09s-.12.91-.39,2.3-.43,2.38-.48,2.88-.18,1.33-.4,2.72-.38,2.41-.48,3-.21,1.6-.34,2.9-.21,2.34-.21,3.1v2.71a16.72,16.72,0,0,0,.22,2.91q.21,1.15.48,2.38a15.56,15.56,0,0,0,.72,2.38l0,.06,0,.06c1.46,2.44,4.27,3.58,8,3.57a4.94,4.94,0,0,0,4.66-2.85,14.48,14.48,0,0,0,1.31-6.56q0-3.82-.27-7.83t-.27-7.93a13.46,13.46,0,0,1,.86-5.58,6.76,6.76,0,0,1,.83-1.4h0l-.2-.35v.4l.2,0-.2-.35v0l-.2.35.2,0v-.4l-.2.35h0a6.69,6.69,0,0,1,.54.68,8.86,8.86,0,0,1,.53,1.18l0,0,0,0a176.5,176.5,0,0,1,8.49,17.73l.76-.31-.77.28a10,10,0,0,1,.5,2.5,9.88,9.88,0,0,0,.46,2.52l.76-.29-.79.21a11.69,11.69,0,0,0,3.67,6.37h0a9,9,0,0,0,5.5,1.5V169a7.4,7.4,0,0,1-4.52-1.17l-.49.65.51-.64a10.11,10.11,0,0,1-3.11-5.51v-.08a8.57,8.57,0,0,1-.36-2.08,11.59,11.59,0,0,0-.59-2.92h0v0a178.32,178.32,0,0,0-8.57-17.89l-.72.39.76-.3a9.25,9.25,0,0,0-.69-1.48,8.11,8.11,0,0,0-.68-.86,1.28,1.28,0,0,0-2,0,8,8,0,0,0-1.07,1.77,14.87,14.87,0,0,0-1,6.29q0,4,.27,8t.27,7.72a12.9,12.9,0,0,1-1.13,5.82,3.27,3.27,0,0,1-3.2,2c-3.48,0-5.54-1-6.61-2.77l-.7.42.76-.3a14,14,0,0,1-.64-2.13q-.27-1.21-.47-2.32a15.08,15.08,0,0,1-.19-2.62v-2.71c0-.67.06-1.65.2-2.94s.25-2.24.33-2.83.25-1.61.47-3,.36-2.32.41-2.81.19-1.32.46-2.74a23.85,23.85,0,0,0,.42-2.61H31.5l.8.18a27.17,27.17,0,0,0,.7-5.81c0-8.08.5-14.22,1.47-18.34l0-.14,0-.14v-.21c.06-.5,0-.42.32-.55a11.33,11.33,0,0,1,2.95-.27h.54c4.24,0,7.57,2,10.28,6.17,1.41,2.13,3.76,6.46,7,12.92l.73-.37-.75.33a1.55,1.55,0,0,0,1.38,1,1.81,1.81,0,0,0,1.08-.41c.8-.72.82-1.64.87-3q0-8.37.54-16.53c.26-3.49.66-5.76,1-6.46l-.74-.35.73.37c.4-.73,1-1.11,2.39-1.13a7.1,7.1,0,0,1,.73,0l.08-.81-.1.81c4.18.51,6.39,1.68,6.81,2.79v0a7.89,7.89,0,0,1,.68,2.18,13.1,13.1,0,0,1,.19,1.92,14,14,0,0,1-.26,2.16,15,15,0,0,0-.28,2.19h.82l-.81-.11c-.1.74-.25,2.62-.48,5.73s-.43,5.71-.61,7.82c-1.28,13-1.93,21.53-1.93,25.74,0,.53,0,1,0,1.4l.82,0h-.82a28.94,28.94,0,0,0,.35,3.34c.22,1.59.35,2.88.4,3.86v.13a3.24,3.24,0,0,1-.89,2.16c-.54.63-1.56,1-3.24,1Z"/><path d="M120,158.13a.89.89,0,0,0-.31-.6.88.88,0,0,0-.6-.32,16.06,16.06,0,0,0-3.25.84l-3.3,1.05q0-10.05.4-15.64a87.72,87.72,0,0,1,1.08-9.32q.29-1.33.6-2.92a14.11,14.11,0,0,0,.31-2.64q0-2-1.88-2-1.65,0-4.73,1.9a5,5,0,0,1-2.62.84h-1.59a9.58,9.58,0,0,0-1.51.11,4.26,4.26,0,0,0-1.11.32l-.68,1.34.28,1.76a5.64,5.64,0,0,1,2.28.56q1,.56,2.05,1.05,0,6.4-.54,13.39t-1.57,12.83a2.29,2.29,0,0,0,.91,1.27v.63a4.19,4.19,0,0,0-1.59-.35,1.71,1.71,0,0,0-1.22.46,2,2,0,0,0-.48,1.51,2.37,2.37,0,0,0,1.65,2.6,42.83,42.83,0,0,1,6.32-3.8,81.08,81.08,0,0,1,11-3.87Zm-17.23-40q.94-.17.94-.88l-.17-1.05-1-1.27-3.13-.21-.63.35L96.34,115a4,4,0,0,0-.28.56,1.32,1.32,0,0,0-.11.49,2.25,2.25,0,0,0,.17.84,3,3,0,0,0,.46.77l2.25.42a12.09,12.09,0,0,0,2.14.21A10,10,0,0,0,102.8,118.15Zm11.56,3.27a5.2,5.2,0,0,0,1.62-3.94,7.57,7.57,0,0,0-1.34-4.54,4.08,4.08,0,0,0-3.45-1.86,4.85,4.85,0,0,0-3.53,1.55,5.44,5.44,0,0,0-1.54,4,7.73,7.73,0,0,0,1.28,4.43,3.83,3.83,0,0,0,3.27,1.9A5.19,5.19,0,0,0,114.36,121.42Zm-8.69-11.74v-.56q-1.25-1.19-1.31-1.27a4.15,4.15,0,0,1-.91-2.81,5.06,5.06,0,0,1,.46-1.69q0-.91-1.25-.91a1.28,1.28,0,0,0-.68.18,5.33,5.33,0,0,0-.68.53,12.3,12.3,0,0,0,.74,3.66,36.38,36.38,0,0,0,1.31,3.45l1.48.49Zm20.22,5.7q-.29-1.62-1.48-1.62l-1.08.14-3.13.14a5.16,5.16,0,0,1-.51.42,1.89,1.89,0,0,0-.51.49l.29,1.34.51.42a5.47,5.47,0,0,1,1.74-.25c.82,0,1.57,0,2.25,0Q124.93,115.94,125.9,115.38ZM121.46,100l-.23-.7H121a2.28,2.28,0,0,0-1.31.39,5.82,5.82,0,0,0-1.2,1.16,23.51,23.51,0,0,0-1.71,2.6,7.88,7.88,0,0,0-1.25,2.74l.34,1.27,1.31-.21,1.59-3.94q.4-.42,1.17-1.09a9.4,9.4,0,0,0,1.05-1Z"/><path d="M66.73,221.45a.61.61,0,0,0-.53,0,2.65,2.65,0,0,0-.55.66q-.44.66-.47.74a17.12,17.12,0,0,1-5.55,5,15.28,15.28,0,0,1-6.78,1.33A13.51,13.51,0,0,1,42,223.78a19.25,19.25,0,0,1-4.23-12.54q0-8.43,4.13-14.05a12.82,12.82,0,0,1,10.81-5.62,10.75,10.75,0,0,1,6.13,1.75,6,6,0,0,1,2.89,5.24,6.16,6.16,0,0,1-1.15,3.8,3.62,3.62,0,0,1-3,1.53,4.18,4.18,0,0,1-2.43-.72,3,3,0,0,1-1.28-2.08,5.3,5.3,0,0,1,0-.74,6.07,6.07,0,0,1,.24-1.57,9.43,9.43,0,0,1,.28-1,.58.58,0,0,0-.12-.61.55.55,0,0,0-.67-.09,4.1,4.1,0,0,0-2.13,1.83,6.31,6.31,0,0,0-1.19,3.67,6.37,6.37,0,0,0,2.21,5,7.3,7.3,0,0,0,10.53-.9A10.14,10.14,0,0,0,65.17,200a9.5,9.5,0,0,0-3.87-7.78,13,13,0,0,0-8.3-2.8q-8.26,0-14.17,6.75a23.24,23.24,0,0,0-5.91,15.8q0,10.36,5.22,16.26T51.89,234a15,15,0,0,0,10.36-4,16,16,0,0,0,4.51-6.47,4.52,4.52,0,0,0,.32-1.49A.5.5,0,0,0,66.73,221.45Z"/><path d="M105.93,190.65l4.29,17.81h-8.58ZM132.7,234l-16.64-61.39H98.84L82.46,234H95.68l3.19-12.1h14.21l3,12.1Z"/><path class="cls-3" d="M142.23,256.2V253H14.17a7.8,7.8,0,0,1-7.77-7.77V14.17A7.8,7.8,0,0,1,14.17,6.4H142.23A7.8,7.8,0,0,1,150,14.17V245.23a7.8,7.8,0,0,1-7.77,7.77v6.4a14.2,14.2,0,0,0,14.17-14.17V14.17A14.2,14.2,0,0,0,142.23,0H14.17A14.2,14.2,0,0,0,0,14.17V245.23A14.2,14.2,0,0,0,14.17,259.4H142.23Z"/></g></g></svg>