<svg xmlns="http://www.w3.org/2000/svg" viewBox="0 0 113.5 111"><defs><style>.cls-1{fill:#03c1f6;}.cls-2{fill:#000a10;}.cls-3{fill:#001d26;}.cls-4{fill:#00c5fa;}.cls-5{fill:#000408;}.cls-6{fill:#001e27;}.cls-7{fill:#00060b;}</style></defs><title>Asset 18</title><g id="Layer_2" data-name="Layer 2"><g id="Layer_1-2" data-name="Layer 1"><path class="cls-1" d="M113.5,111H0V0H113.5Zm-5-106H5V105.95h103.5Z"/><path class="cls-2" d="M108.52,5V105.95H5V5ZM57,5.5c-16.16,0-32.33,0-48.49,0-2.2,0-3.07.53-3.06,2.92q.11,47.11,0,94.23c0,2.38.84,2.93,3.05,2.93q48.24-.08,96.48,0c2.48,0,3.06-.85,3.06-3.18q-.09-46.86,0-93.73c0-2.61-.86-3.2-3.31-3.19C88.83,5.55,72.92,5.5,57,5.5Z"/><path class="cls-3" d="M57,5.5c15.91,0,31.83,0,47.74,0,2.45,0,3.32.58,3.31,3.19q-.13,46.86,0,93.73c0,2.33-.58,3.19-3.06,3.18q-48.24-.11-96.48,0c-2.21,0-3.06-.54-3.05-2.93q.11-47.11,0-94.23c0-2.39.86-2.93,3.06-2.92C24.68,5.53,40.84,5.5,57,5.5ZM41.5,59a62.62,62.62,0,0,0,6.76-1.54c7.33-2.51,11.2-8.88,10.68-17.22C58.45,32.49,54.25,27,46.53,25.9c-6.16-.84-12.53-.17-18.94-.17v52L36,77l0-.5q0-8.5,0-17l.5-.51,1,0Zm44-11.49c0-2.06-.12-4,0-5.87a2.07,2.07,0,0,0-2.07-2.52,64.92,64.92,0,0,0-9.17-.58,11.24,11.24,0,0,0-10.65,8.93,11.5,11.5,0,0,0,6.69,12.67,55.5,55.5,0,0,1,5.41,3.08c2.71,1.73,3.86,4.46,2.15,6a7.74,7.74,0,0,1-5.39,1.56c-3-.33-6-1.48-9-2.3,0,1.81.11,3.73,0,5.64a2.57,2.57,0,0,0,2,2.94,19.34,19.34,0,0,0,14.75.06,11.05,11.05,0,0,0,3.49-18.46,40,40,0,0,0-6-4,52.35,52.35,0,0,1-4.86-3c-2-1.65-1.75-4.5.52-5.27a11.64,11.64,0,0,1,5-.59A58.69,58.69,0,0,1,85.49,47.51Z"/><path class="cls-4" d="M36,77l-8.4.77v-52c6.41,0,12.78-.67,18.94.17C54.25,27,58.45,32.49,58.93,40.24c.52,8.35-3.35,14.71-10.68,17.22A62.62,62.62,0,0,1,41.5,59h-4l-1,0-.5.51q0,8.5,0,17Zm.52-26,5,0,1-.05c5.05-.79,7.69-3.38,7.83-8.35.16-5.64-1.29-7.52-6.84-9.51L42,33H36.5l-.5.5q0,8.5,0,17Z"/><path class="cls-4" d="M85.49,47.51a58.69,58.69,0,0,0-7.15-1.78,11.64,11.64,0,0,0-5,.59c-2.27.76-2.56,3.62-.52,5.27a52.35,52.35,0,0,0,4.86,3,40,40,0,0,1,6,4,11.05,11.05,0,0,1-3.49,18.46A19.34,19.34,0,0,1,65.44,77a2.57,2.57,0,0,1-2-2.94c.14-1.9,0-3.82,0-5.64,3,.82,6,2,9,2.3a7.74,7.74,0,0,0,5.39-1.56c1.71-1.5.56-4.22-2.15-6a55.5,55.5,0,0,0-5.41-3.08,11.5,11.5,0,0,1-6.69-12.67,11.24,11.24,0,0,1,10.65-8.93,64.92,64.92,0,0,1,9.17.58,2.07,2.07,0,0,1,2.07,2.52C85.38,43.54,85.49,45.45,85.49,47.51Z"/><path class="cls-5" d="M37.5,59h0Z"/><path class="cls-5" d="M36,59.5l.5-.51Z"/><path class="cls-5" d="M36,77l0-.5Z"/><path class="cls-6" d="M41.5,51l-5,0L36,50.5q0-8.5,0-17l.5-.5H42l1.48.1c5.55,2,7,3.87,6.84,9.51-.14,5-2.78,7.56-7.83,8.35Z"/><path class="cls-7" d="M43.48,33.09,42,33Z"/><path class="cls-7" d="M41.5,51l1-.05Z"/><path class="cls-7" d="M36.5,33l-.5.5Z"/><path class="cls-7" d="M36,50.5l.51.52Z"/></g></g></svg>