<svg xmlns="http://www.w3.org/2000/svg" viewBox="0 0 115.73 44.11"><defs><style>.cls-1{fill:#fff;}</style></defs><title>Asset 9</title><g id="Layer_2" data-name="Layer 2"><g id="Layer_1-2" data-name="Layer 1"><path d="M43.07,15.6a110.56,110.56,0,0,1-5.65,19.12,81.33,81.33,0,0,1-3.85,7.56c-.77,1.39-1.82,1.61-3.26.95-.94-.44-1.86-.92-2.8-1.36a6.74,6.74,0,0,1-4-5.83,66.8,66.8,0,0,1,.87-16.23,27,27,0,0,0,.44-4.13c-.23.32-.48.63-.7,1C19.87,23.23,16,30,13.69,37.59c-.72,2.32-1.82,4.27-4.23,5.14a6,6,0,0,1-1.35.17,4.47,4.47,0,0,1,0-1.35A166.85,166.85,0,0,0,15,13.67c.41-2.45.54-5,.8-7.43L15.35,6c-2,1-4,2-5.88,3.11-1.51.89-2.9,2-4.34,3A4,4,0,0,0,3.5,16.48c.15.71.28,1.43.42,2.15l-.34.2c-.31-.24-.73-.41-.9-.73-.82-1.46-1.59-2.95-2.34-4.45a2.53,2.53,0,0,1,.73-3.35A36.32,36.32,0,0,1,6.15,7c2.22-1.17,4.6-2,6.86-3.13a3,3,0,0,0,1.18-1.32c.37-.74.8-1,1.5-.55C17.84,3.29,19.34,5,19,7.37c-.75,4.85-1.63,9.67-2.52,14.5-.34,1.84-.83,3.65-1.13,5.55l.61-1Q21,17.88,26.07,9.33a5.84,5.84,0,0,0,.56-1.43c.21-.77.34-1.56.53-2.33.69-2.79,2.2-3.24,4.29-1.19.35.34.58,1.36.35,1.64-3.15,3.78-3.14,8.53-4,13a55.35,55.35,0,0,0-1.1,15.73A12.94,12.94,0,0,0,27.9,39c1,2,2.76,2.12,4.16.32A12.76,12.76,0,0,0,33.48,37a89,89,0,0,0,7.63-23.74,2,2,0,0,0,0-1c-1.56-3.8-.67-7.55.26-11.28.29-1.14,1.16-1.26,2-.38a5.76,5.76,0,0,1,1.48,5.1c-.36,2.13-.8,4.24-1.08,6.38a3.92,3.92,0,0,0,.42,1.84c.25.62.73,1.15.94,1.77.1.29-.18.71-.29,1.07a7.72,7.72,0,0,1-.9-.43A8.33,8.33,0,0,1,43.07,15.6Z"/><path d="M106.59,31.57c.56-.34,1.11-.72,1.69-1a2.54,2.54,0,0,1,.85-.1c0,.37.13.91-.06,1.07-2,1.65-3.73,3.81-6.72,4a3.89,3.89,0,0,1-.33-3.2,15.81,15.81,0,0,0,.38-4.68c-.08-4.39-.24-8.77-.41-13.16,0-.75.15-1.18.94-1.37,1-.25,2.06-.63,3.1-.91,1.71-.47,3,.16,3.35,1.9a11.54,11.54,0,0,1-.09,4.36c-.73,3.3-1.73,6.55-2.57,9.83a30.39,30.39,0,0,0-.47,3Z"/><path d="M77.1,32.68c2.39-1.73,3.79-1.69,5,0a15.22,15.22,0,0,1,3-1.19,2.1,2.1,0,0,1,2.63,2.1c.14,2.19.08,4.39.07,6.58,0,.18-.3.35-.45.52-.16-.22-.45-.43-.46-.66,0-1.68,0-3.35,0-5,0-2-.44-2.63-1.81-2.6a2.87,2.87,0,0,0-2.79,2.79c0,1.79,0,3.58,0,5.36-.81.34-1,0-1-.66,0-1.76,0-3.51,0-5.27,0-1.6-.49-2.21-1.7-2.23a2.93,2.93,0,0,0-2.81,2.41c0,1.64,0,3.28,0,4.91,0,.33-.32.65-.48,1-.15-.31-.43-.61-.43-.93q-.05-3.53,0-7.07c0-.34.3-.67.46-1Z"/><path d="M107.17,41.17a2.84,2.84,0,0,1-3.06,2.94A3.12,3.12,0,0,1,100.88,41a3.18,3.18,0,0,1,3-3.22A3.23,3.23,0,0,1,107.17,41.17Z"/><path d="M98.46,36.43h-7A3.09,3.09,0,0,0,93.85,40c1.72.36,2.88-.52,3.84-1.95l.41.45a7.05,7.05,0,0,1-1,1.62,4.1,4.1,0,0,1-6.32-1.48A6.1,6.1,0,0,1,90.68,34a3.67,3.67,0,0,1,3.76-2.57,3.63,3.63,0,0,1,3.62,2.76C98.24,34.87,98.3,35.54,98.46,36.43Z"/><path d="M50.28,36.45H43.54a3.13,3.13,0,0,0,5.7,2.21c.17-.21.51-.28.91-.5a3.15,3.15,0,0,1-3,2.78,3.86,3.86,0,0,1-4.15-2,6,6,0,0,1,0-5.54,3.88,3.88,0,0,1,4.75-1.74A4.18,4.18,0,0,1,50.28,36.45Zm-.85-1c-.38-2.15-1.54-3.12-3.35-3a2.8,2.8,0,0,0-2.52,3Z"/><path d="M73.45,36.22c0,3.35-2.06,5.27-5,4.66l-.24,0c-2.18-.6-3.37-3.48-2.61-6.34a3.9,3.9,0,0,1,5-2.9C72.41,32.1,73.45,33.79,73.45,36.22Z"/><path d="M63.92,34.4c-.51-.35-.87-.48-1-.72a2.91,2.91,0,0,0-5,.23,5,5,0,0,0-.06,4.52,2.9,2.9,0,0,0,5,.35c.17-.24.51-.36,1-.72-.34,1.69-1.1,2.53-2.39,2.81a3.78,3.78,0,0,1-4.09-1.32A6.13,6.13,0,0,1,57.37,33a3.78,3.78,0,0,1,4.06-1.42C62.75,31.82,63.59,32.66,63.92,34.4Z"/><path d="M53.35,27.81c.21.24.59.48.59.72,0,3.88,0,7.76,0,11.63,0,.19-.28.38-.43.56-.17-.21-.48-.41-.48-.62,0-4,0-8.06,0-12.09Z"/><path d="M102.15,7.52a27.5,27.5,0,0,1-1,3.12,1.31,1.31,0,0,1-1.18.52.89.89,0,0,1-.35-1.46c.38-.5.55-1.15.92-1.66a5.83,5.83,0,0,1,1.07-.92Z"/><path d="M111.06,13.27c.79-.64,1.54-1.33,2.39-1.89.27-.18.78,0,1.19,0,0,.44.13,1-.1,1.28a8.5,8.5,0,0,1-2.07,1.5c-.25.13-.74-.18-1.12-.28Z"/><path d="M111.53,19.85c.55.14,1,.29,1.53.38s1.27.18,1.9.28c.25,0,.58.08.7.25a.89.89,0,0,1,0,.72,5.23,5.23,0,0,1-2.41.56c-.71-.16-1.28-1-1.88-1.56C111.31,20.42,111.45,20.14,111.53,19.85Z"/><path d="M109.28,6.87c-.55.71-1,1.4-1.62,2-.09.1-.68,0-.78-.22a2.11,2.11,0,0,1,.49-2.5,4.19,4.19,0,0,1,1.07-.7Z"/><path d="M97.28,26a4,4,0,0,1-.94-.24c-.25-.13-.61-.44-.58-.61a1.14,1.14,0,0,1,.58-.76A3.78,3.78,0,0,1,98,24.08c.41,0,1,.29,1.15.6.26.68-.23,1.1-.91,1.23C97.93,26,97.65,26,97.28,26Z"/><path d="M97.46,15.59a1.69,1.69,0,0,1,2.3.48c.22.28,0,.89,0,1.35-.52-.08-1.16,0-1.52-.28S97.75,16.2,97.46,15.59Z"/><path class="cls-1" d="M97.23,35.39H91.43a2.9,2.9,0,1,1,5.81,0Z"/><path class="cls-1" d="M72.49,36.32c0,2.59-1.55,4.06-3.73,3.63l-.23,0c-1.63-.45-2.42-2.25-2.06-4.68.28-1.87,1.36-2.84,3.1-2.79S72.52,33.93,72.49,36.32Z"/></g></g></svg>