<svg xmlns="http://www.w3.org/2000/svg" viewBox="0 0 96.78 50.72"><title>Asset 30</title><g id="Layer_2" data-name="Layer 2"><g id="Layer_1-2" data-name="Layer 1"><path d="M0,47c.58-.58,1.12-1.21,1.74-1.75,3.31-2.88,6.66-5.73,9.94-8.64a2.51,2.51,0,0,0,.58-1.56c.08-.91-.07-1.84,0-2.75a2.46,2.46,0,0,1,2.08-2.57,3.76,3.76,0,0,1,1.17-.23c2.16.14,3.41-1,4.64-2.67A136.85,136.85,0,0,0,31,10.48c.27-.49.53-1,.79-1.47-.12-.06-.2-.14-.24-.13-5,1.73-10,3.45-15,5.21a9.49,9.49,0,0,0-2.23,1.12c-1.58,1.1-1.94,2.71-1.83,4.54,0,.68.53,1.7-.5,2s-1.25-.82-1.52-1.5a51,51,0,0,1-1.84-5.18c-.53-1.89-.06-3.14,1.78-3.92a32.61,32.61,0,0,1,6.72-2A70.87,70.87,0,0,0,31.65,5.26a3.31,3.31,0,0,0,2.17-2.21c.22-.8.78-.95,1.36-.52a6.39,6.39,0,0,1,2,1.86A2.48,2.48,0,0,1,37,6.46C34.2,11,31.42,15.62,28.49,20.1c-1.92,2.94-4.1,5.71-6.16,8.56-.08.11-.14.25-.34.61l12.8-.42c.34-2.33.6-4.53,1-6.72,1-5.59,2-11.17,3-16.74A7.33,7.33,0,0,1,44.62,0c.34,0,1,.16,1,.31a3.24,3.24,0,0,1-.22,1.45c-.78,2.08-2,4.08-2.36,6.23-1.16,6.16-2.22,12.35-2.91,18.57-.51,4.58-.43,9.24-.51,13.86a9.3,9.3,0,0,0,.64,2.9,1.52,1.52,0,0,0,2.16,1.05,8,8,0,0,1,2-.09A6.14,6.14,0,0,1,43.23,46a47.61,47.61,0,0,1-4.69,2.88c-1.64.88-2.78.5-3.18-1.3a43.79,43.79,0,0,1-1-7.21c-.13-2.51.07-5,.13-7.55,0-.27,0-.54,0-1-5.11.49-10.11,1-15.11,1.45a1.33,1.33,0,0,0-.83.37c-2.13,2.58-4.24,5.18-6.39,7.83A4.4,4.4,0,0,1,16,46.27c0,.31-.66.85-.88.79-3.85-1-6.8,1.07-9.83,2.83-2,1.18-2.4,1.2-4-.56A16.81,16.81,0,0,1,0,47.48Q0,47.24,0,47Z"/><path d="M49.23,33.14l-.13,1.19-1.28.07V15.16h1.33v7.33A22.61,22.61,0,0,1,51.26,21a4.8,4.8,0,0,1,6.86,2.22,9.84,9.84,0,0,1,.18,7.93c-1.39,3.56-4.89,4.66-8.15,2.65C49.88,33.61,49.63,33.42,49.23,33.14Zm-.07-5.35c0,.84,0,1.68,0,2.51a1.55,1.55,0,0,0,.17.9,5.18,5.18,0,0,0,4.36,2.07A3.68,3.68,0,0,0,57,30.7a9.17,9.17,0,0,0,0-6.44,3.65,3.65,0,0,0-5.39-2c-1.52.88-2.8,2-2.49,4.07A9.83,9.83,0,0,1,49.16,27.79Z"/><path d="M61.51,27.45a27,27,0,0,1,.6-3C63,21.66,65,20.33,68,20.36A5.25,5.25,0,0,1,73.4,24.6,14.52,14.52,0,0,1,73.53,30a5.56,5.56,0,0,1-6.24,4.71c-3.14-.21-5.26-2.42-5.59-5.82,0-.48,0-1-.07-1.44ZM63,27.14c0,.78,0,1.27.1,1.74.33,2.6,1.92,4.24,4.26,4.42a4.39,4.39,0,0,0,4.74-3.54,8.3,8.3,0,0,0-.2-5.07,4.52,4.52,0,0,0-8.53.28A17.22,17.22,0,0,0,63,27.14Z"/><path d="M86.45,33.15a26.33,26.33,0,0,1-3.85,1.48c-2.87.63-5-1-5.06-3.88-.12-3.27,0-6.55,0-9.92h1.4c0,2,0,3.91,0,5.85,0,1.24,0,2.48,0,3.72.13,2.11,1.31,3.09,3.41,2.9a4.52,4.52,0,0,0,4.15-4.49c0-2.63,0-5.26,0-8H87.9V34.34l-1.25.06Z"/><path d="M96.78,33.25v1.13c-2.76.55-3.84-.23-3.91-2.94s0-5.2,0-7.79c0-.43,0-.87,0-1.38l-1.67-.17V20.77l1.64-.11V17.19h1.44v3.46l2.16.13v1.33l-2.12.11c0,.51,0,1,0,1.5q0,3.24,0,6.48C94.28,32.68,94.42,32.84,96.78,33.25Z"/></g></g></svg>