<svg xmlns="http://www.w3.org/2000/svg" viewBox="0 0 84.3 43.53"><title>Asset 11</title><g id="Layer_2" data-name="Layer 2"><g id="Layer_1-2" data-name="Layer 1"><path d="M56.35,41.07c0-1.24-.07-2.4,0-3.53,0-.35.49-.77.85-1q11-5.51,22-11c.21-.11.42-.23.81-.44-2-1-3.87-2-5.74-2.89Q65.76,18,57.22,13.82a1.34,1.34,0,0,1-.88-1.47c.06-1,0-2,0-3.21l4.37,2.25c7.49,3.85,15,7.7,22.49,11.52.79.4,1.18.83,1.06,1.72-.07.51.06,1.05,0,1.55a1.57,1.57,0,0,1-.6,1Q70.23,34.11,56.78,41A2.85,2.85,0,0,1,56.35,41.07Z"/><path d="M27.95,41.19l-4.09-2.1c-7.67-3.95-15.32-7.92-23-11.83-1.3-.66-.66-1.71-.8-2.6A1.29,1.29,0,0,1,.8,23.11q13-6.65,26-13.37c.31-.16.64-.29,1.15-.52a30,30,0,0,1-.05,3.65c-.05.4-.64.84-1.08,1.07-5,2.54-10.06,5.05-15.1,7.57L5.6,24.58l-1.15.61c7.16,3.59,14.12,7.17,21.18,10.56,1.79.86,2.72,1.82,2.33,3.83A9.57,9.57,0,0,0,27.95,41.19Z"/><path d="M35.88,43.53h-4.1l3.85-10Q41.86,17.34,48.07,1.15c.33-.86.71-1.21,1.62-1.14s1.83,0,3,0Z"/></g></g></svg>