<svg xmlns="http://www.w3.org/2000/svg" viewBox="0 0 195.39 76.19"><title>Asset 4</title><g id="Layer_2" data-name="Layer 2"><g id="Layer_1-2" data-name="Layer 1"><path d="M195.39,69.51C129.2,37.84,66.19,100.59,0,68.93Q0,40.22,0,11.51c66.33,31.34,129.06-31.92,195.39-.58Q195.39,40.22,195.39,69.51ZM144.88,12.12C129,14.28,114,18.09,98.67,22.55V56.9C114,52.49,129,48.73,144.88,46.63Zm2.57,34.36c17.28-.1,30.51,2.68,46.23,9.93V21.72c-15.74-7.18-29-9.94-46.23-9.76ZM95.91,23.38c-15.35,4.44-30.33,8.19-46.19,10.26V67.86c15.86-2,30.84-5.71,46.19-10.09ZM47,68V33.84C29.76,33.84,16.6,30.94,1,23.59v34C16.59,65,29.75,68,47,68Zm53.87-3.84c3.83-.5,4.41-1.59,3.22-5.67l-3.22.93C100.9,61.1,100.9,62.57,100.9,64.18Zm-84.37-39c.07-1,.2-2.17-1.92-2.89-2.29-.77-1.72.87-1.75,2.07s-.32,2.56,1.87,3.26S16.5,26.72,16.53,25.14Zm58.56-.83c0-1.21.52-2.8-1.76-2.25s-1.93,1.73-1.9,3.06-.37,2.78,1.82,2.28S75.13,25.63,75.09,24.32ZM32.38,28.77c0,1.26-.35,2.59,1.84,2.76s1.84-1.25,1.84-2.54.33-2.59-1.86-2.76S32.37,27.42,32.38,28.77ZM120,54.13a28.61,28.61,0,0,0,1,4.7,4.76,4.76,0,0,0,2.51-.73,32.64,32.64,0,0,0,.54-4.92C122.65,53.49,121.66,53.73,120,54.13ZM55.58,28.21c-.1-1.17.58-2.76-1.73-2.52-2.11.22-2,1.37-2,2.76.08,1.22-.51,2.79,1.75,2.57C55.76,30.82,55.69,29.61,55.58,28.21Zm94.29,26.16c3.71.27,4.32-.73,3-5-1,0-2,0-3,.08Zm13,.78V49.45c-1.28.16-3,0-3.16.52a6.92,6.92,0,0,0,0,4.13C159.88,54.62,161.59,54.73,162.86,55.14Zm6.59-4.76v5.7c1.27,0,3,.34,3.15-.13a6.91,6.91,0,0,0,0-4.13C172.45,51.27,170.73,50.9,169.45,50.38Zm9.71,2.78v5c1.16.37,2.14.71,3.25,1.13v-5C181.27,53.86,180.28,53.52,179.15,53.16ZM104.48,16c-.07-1.2.51-2.84-1.75-2.23s-2,1.78-1.92,3.12c.07,1.19-.56,2.91,1.72,2.27C104.59,18.61,104.62,17.45,104.48,16ZM124,10.86c0-1.43.39-2.9-1.82-2.38s-1.89,1.78-1.87,3.1-.4,2.79,1.82,2.26S124.08,12.08,124,10.86Zm19.93-.6A35.54,35.54,0,0,0,142.83,5c-.07-.2-2.54.28-2.64.64a7.29,7.29,0,0,0-.06,4.11C140.32,10.24,142.08,10,143.94,10.26Zm19-6c-1.38.24-3.12.17-3.32.75a6.2,6.2,0,0,0,.15,4.08c.21.51,2,.47,3.17.74Zm6.36,6.69c1.38-.11,3.11.24,3.31-.28a6.42,6.42,0,0,0-.11-4.11c-.2-.55-2-.79-3.19-1.18Zm19.44,3.33c.12,1.09-.6,2.28,1.7,3.48,2.07,1.08,2-.06,2-1.55s.37-2.72-2-3.83C188.41,11.4,188.77,12.87,188.77,14.27Zm-172,53.4c-1.65-.52-2.69-.88-4.17-1.44a41.44,41.44,0,0,0,1,5.16c.08.27,2.26,1,2.34.78A27.83,27.83,0,0,0,16.74,67.68Zm-10.27.74V63.57C5.3,63,4.31,62.51,3.36,62,2.38,66,2.78,67,6.47,68.42Zm68.48,3c0-1.68,0-3.21,0-4.83l-3.12.74C70.64,72.06,71.21,72.88,74.94,71.4Zm9.83-7.34L81.44,65c0,1.7,0,3.22,0,4.83l3.34-.91Zm6.4-1.88v5l3.27-.95v-5ZM3.39,17.62c-1.1,4.14-.45,5.53,3.1,6.18V19.17C5.34,18.62,4.35,18.12,3.39,17.62Zm78,7.83c1.32-.66,3.12-1.15,3.3-1.74a6.23,6.23,0,0,0-.11-4.07c-.19-.43-2,.23-3.19.4C81.36,21.93,81.36,23.34,81.36,25.45Zm13.09-4.22V16.46l-3.1.91C90.33,22.44,90.77,23,94.44,21.23Zm49.35,28.91-.76-.57c-1,.43-2.75.72-2.95,1.35a7.38,7.38,0,0,0,.2,4.08c.09.3,2.42.18,2.49,0A37.33,37.33,0,0,0,143.79,50.13ZM32.17,70.77A32.48,32.48,0,0,0,33,75.71a4.4,4.4,0,0,0,2.54.17,30.2,30.2,0,0,0,.66-4.78C34.75,71,33.76,70.94,32.17,70.77Zm19.6,0a29.48,29.48,0,0,0,.66,4.76A4.63,4.63,0,0,0,55,75.26a36.4,36.4,0,0,0,.75-5C54.21,70.48,53.22,70.59,51.77,70.73ZM192.54,59c-1.48-.8-2.53-1.33-4-2a41.23,41.23,0,0,0,.87,5.31c.08.29,2.47,1.43,2.53,1.2A25.26,25.26,0,0,0,192.54,59ZM182.48,9.13c-1.22-.45-2.21-.78-3.17-1.09-1,4.58-.43,5.53,3.17,5.78Zm-32.61.48c1.23-.26,3-.22,3.12-.69A6.81,6.81,0,0,0,153,4.8c-.18-.53-1.95-.49-3.19-.71Zm-35.92,51V55.69l-2.95.8C109.86,61.28,110.33,61.94,113.94,60.61ZM22.88,69.23c-.73,4.92-.45,5.48,3.1,5.37V69.86C24.85,69.66,23.92,69.47,22.88,69.23Zm107.46-12.5c3.65-.25,4.38-1.68,2.93-5.41l-2.93.54ZM42.39,71.22v4.91c1.15,0,2.12,0,3.15-.08V71.14C44.4,71.19,43.48,71.21,42.39,71.22Zm19.5,2.89c3.67,0,4.37-1.35,3-5.28-1,.19-2,.37-3,.55ZM62,24.37v5.52c1.22-.48,2.91-.78,3.07-1.3a7.06,7.06,0,0,0,0-4.1C64.91,24,63.19,24.4,62,24.37ZM26.56,25c-1.75.12-3.55-.21-3.66.23a10,10,0,0,0,.23,4.3,4.65,4.65,0,0,0,2.29.62A40.71,40.71,0,0,0,26.56,25Zm19.16,3.38c0-.61.5-2.06-1.76-2-2.05.08-1.81,1.3-1.73,2.52s-.66,2.79,1.65,2.78S45.78,30.37,45.72,28.42Zm84.92-21.9-.73.74A33.64,33.64,0,0,0,131,11.72a4.56,4.56,0,0,0,2.28-.63,10.72,10.72,0,0,0,.18-4.35C133.37,6.32,131.63,6.57,130.65,6.52ZM114.42,11l-.72-.41c-1,.51-2.73,1.06-2.83,1.53a10,10,0,0,0,.18,4.26c0,.22,2.22-.22,2.28-.42A45.7,45.7,0,0,0,114.42,11Z" transform="translate(0 -1.95)"/></g></g></svg>