<svg xmlns="http://www.w3.org/2000/svg" viewBox="0 0 411.12 386.76"><title>Asset 2</title><g id="Layer_2" data-name="Layer 2"><g id="Layer_1-2" data-name="Layer 1"><path d="M291,245a85,85,0,0,1-1.39,34.39,76.41,76.41,0,0,1-6.29,16.29A68.89,68.89,0,0,1,273.16,310c-1.95,2.17-4,4.28-6,6.29-1,1-2.1,2-3.18,3s-2.16,1.93-3.25,2.87c-4.37,3.78-8.88,7.38-13.42,10.89l-6.82,5.23-1.7,1.3-1.91,1.33a27.83,27.83,0,0,1-4.13,2.2,31.94,31.94,0,0,1-18.21,1.8A63.37,63.37,0,0,1,197.7,339a126.23,126.23,0,0,1-15-9c-4.78-3.28-9.38-6.77-13.9-10.31-2.26-1.79-4.5-3.5-6.74-5.4-1.13-.92-2.21-1.9-3.28-2.89s-2.13-2-3.17-3c-8.26-8.19-15.19-18-18.91-29.16a62.13,62.13,0,0,1-3-17.15c0-1.45,0-2.9,0-4.33l-.47-4.23-.86-8.5.27,0,1.22,8.51.61,4.26c.08,1.42.11,2.85.17,4.28a61,61,0,0,0,3.45,16.71c3.86,10.78,10.78,20.24,19,28.1a154.79,154.79,0,0,0,13.17,11c4.53,3.5,9.11,6.92,13.84,10.12a123.77,123.77,0,0,0,14.75,8.69,60.77,60.77,0,0,0,16.1,5.55,29.32,29.32,0,0,0,16.7-1.51,25.21,25.21,0,0,0,3.76-2l1.75-1.2,1.71-1.29,6.85-5.17c9.07-6.95,18-14.13,25.84-22.48a66.84,66.84,0,0,0,10.14-13.74,75.59,75.59,0,0,0,6.47-15.82,83.22,83.22,0,0,0,2.95-16.85A92.27,92.27,0,0,0,290.7,245Z"/><path d="M206.29,106.21c4.47-2.62,8.91-5.27,13.17-8.15a88.91,88.91,0,0,0,12-9.41,33.44,33.44,0,0,0,5-5.43,7.15,7.15,0,0,0,1.2-2.79,3.61,3.61,0,0,0-.53-2.42,16.69,16.69,0,0,0-4.85-4.64c-2-1.44-4.22-2.7-6.51-4.44a32.91,32.91,0,0,0-12.95-5.79c-4.82-1.15-10.17-2-15.41-4l-.25-.09-.31-.12a7.68,7.68,0,0,1-.81-.39,8.33,8.33,0,0,1-1.41-1,9.94,9.94,0,0,1-1.91-2.38A17.18,17.18,0,0,1,191,50.55a42.09,42.09,0,0,1-1-8.44c-.09-2.71,0-5.39,0-7.92,0-.62,0-1.24,0-1.76l-.07-2c0-1.32-.06-2.59-.12-3.81a22.35,22.35,0,0,0-1-6.41,12.36,12.36,0,0,0-3.36-4.5,19.38,19.38,0,0,0-5.23-3.44,10,10,0,0,0-5.09-1,5.19,5.19,0,0,0-1,.22c-.14.06-.29.11-.43.18l-.21.11-.09,0h0a4.52,4.52,0,0,0-.66,1.07,22.13,22.13,0,0,0-1.07,2.94c-.36,1.17-.7,2.45-1.29,4A12.54,12.54,0,0,1,169,22.65a7.78,7.78,0,0,1-1.75,1.81l-.33.23-.27.17-.31.17-.62.34A16.05,16.05,0,0,1,160.39,27a22.37,22.37,0,0,1-9.86-1.21A33.27,33.27,0,0,1,146.29,24c-1.36-.68-2.54-1.38-3.58-2a15.73,15.73,0,0,0-2.65-1.23,4.06,4.06,0,0,0-1.71-.24,4.13,4.13,0,0,0-.84.18c-.07,0-.52.16-.83.26l-1,.32c-1.32.41-2.62.77-3.9,1.12-2.55.7-5,1.33-7.44,2-4.77,1.35-9.36,2.93-12.68,5.24q-.61.43-1.16.89l-.44.39a1.34,1.34,0,0,0,.22-.27c.15-.21.16-.4.15-.3a3.62,3.62,0,0,0,0,.74c.07.78.33,1.92.61,3.24a23.54,23.54,0,0,1,.64,5l0,2.88-2.49,1.59a25.5,25.5,0,0,1-9.07,3.44,57,57,0,0,1-8.4.79c-2.62.1-5.09.14-7.34.37a19.41,19.41,0,0,0-5.85,1.32A9.81,9.81,0,0,0,76.45,51L76,51.4a2.25,2.25,0,0,0,.46-.59,2.14,2.14,0,0,0,.23-.62,1,1,0,0,0,0-.18,11.34,11.34,0,0,0,.54,2.32A26.25,26.25,0,0,1,78.31,57a10.74,10.74,0,0,1-.25,3.77A8.83,8.83,0,0,1,77.15,63l-.33.52c-.1.15-.13.18-.2.28l-.36.48a25.94,25.94,0,0,1-3.19,3.54A36.24,36.24,0,0,1,65.75,73c-5,2.72-9.93,4.47-14.33,6.45a44.92,44.92,0,0,0-6.07,3.24,23.57,23.57,0,0,0-2.55,1.9l-.59.52-.69.64L40.06,87.1a34.25,34.25,0,0,1-3.49,2.82,19.54,19.54,0,0,1-4.5,2.35,24.81,24.81,0,0,1-9.37,1.28c-2.87-.1-5.47-.43-7.86-.61a25.49,25.49,0,0,0-6.45.14l2.33-1.23a5.92,5.92,0,0,0-1.51,2.07,3.85,3.85,0,0,0-.1,2.24c.41,2,1.86,4.61,3.46,7.25a82.46,82.46,0,0,1,4.82,8.77,30.59,30.59,0,0,1,1.8,5.17l.16.69.08.38c0,.2.07.39.1.6a7,7,0,0,1-1.33,5.06,8.72,8.72,0,0,1-1.49,1.56,14,14,0,0,1-2.79,1.74c-.87.42-1.69.75-2.48,1.06-1.57.6-3,1.11-4.34,1.64a10.06,10.06,0,0,0-2.85,1.57c-.22.21-.22.24-.25.26v0s0,0,0,.08,0,.23,0,.34A4,4,0,0,0,4,133a4.78,4.78,0,0,0,1.2,2.49A15.14,15.14,0,0,0,8.12,138c2.35,1.63,5.14,3.08,8,4.72a31.55,31.55,0,0,1,8.28,6.35,13.57,13.57,0,0,1,2.78,5.19,21.65,21.65,0,0,1,.67,5.36,18.83,18.83,0,0,1-.18,2.74,9.8,9.8,0,0,1-.91,3,5.12,5.12,0,0,1-1.36,1.68,4,4,0,0,1-2.46.86,3.25,3.25,0,0,1-.59,0l-.28,0h.1s0,0,0,0l-.47,0-1.12,0a58.93,58.93,0,0,0-9.15.66,29.55,29.55,0,0,0-4.37,1,10.42,10.42,0,0,0-3.63,1.85,3,3,0,0,0-.95,1.34,5.82,5.82,0,0,0-.3,1.88,16.08,16.08,0,0,0,.72,4.32,46.18,46.18,0,0,0,3.6,8.55,44.87,44.87,0,0,0,5.17,7.83l-.43.42A45.51,45.51,0,0,1,5.57,188a45.26,45.26,0,0,1-4.11-8.63,17.75,17.75,0,0,1-1-4.73,7.61,7.61,0,0,1,.29-2.46A4.79,4.79,0,0,1,2.13,170a12,12,0,0,1,4.22-2.41A31.29,31.29,0,0,1,11,166.37a61.08,61.08,0,0,1,9.49-1l1.2,0h.61l.19,0h.13a1,1,0,0,0,.25,0,1.73,1.73,0,0,0,1.49-1.14,10.3,10.3,0,0,0,.65-4.49,19,19,0,0,0-.71-4.59A10.4,10.4,0,0,0,22,151.21a28.78,28.78,0,0,0-7.57-5.46c-2.76-1.53-5.63-2.9-8.32-4.65A19.14,19.14,0,0,1,2.36,138a8.77,8.77,0,0,1-2.24-4.37,7.73,7.73,0,0,1,0-2.51,4.6,4.6,0,0,1,1.21-2.27,12.73,12.73,0,0,1,4.12-2.62c1.47-.65,3-1.19,4.42-1.78a15.82,15.82,0,0,0,4.05-2.17,3.37,3.37,0,0,0,1.18-1.71,4,4,0,0,0-.2-2.12,25.94,25.94,0,0,0-1.61-4.38,77.17,77.17,0,0,0-4.71-8.18c-1.65-2.69-3.41-5.43-4.22-8.63a8.94,8.94,0,0,1,.13-4.94,10.52,10.52,0,0,1,2.69-4.13l.1-.1.14,0c5.21-1,10.38.09,15.42.18a19.69,19.69,0,0,0,7.38-1,18.82,18.82,0,0,0,6.16-4.16c.94-.86,1.82-1.77,2.81-2.63a29,29,0,0,1,3.09-2.38A50,50,0,0,1,49,74.33c4.66-2.18,9.49-3.93,13.93-6.38a30.56,30.56,0,0,0,6.14-4.35,20.15,20.15,0,0,0,2.49-2.78,3.89,3.89,0,0,0,.82-1.48,5,5,0,0,0,.08-1.71A21.32,21.32,0,0,0,71.64,54a15.2,15.2,0,0,1-.79-3.9A4.16,4.16,0,0,1,71.33,48a3.64,3.64,0,0,1,.7-.89l.76-.65a15.69,15.69,0,0,1,3.41-2,25.07,25.07,0,0,1,7.61-1.82c2.58-.27,5.15-.32,7.7-.43a56.12,56.12,0,0,0,7.56-.71A19.54,19.54,0,0,0,106,38.85l-.27.49c0-2.44-.92-4.93-1.19-7.6a6.55,6.55,0,0,1,.7-4.12,4.58,4.58,0,0,1,.7-.86c.26-.25.51-.44.76-.67q.77-.63,1.59-1.2c4.41-3,9.47-4.57,14.45-6,2.5-.7,5-1.33,7.51-2,1.25-.33,2.49-.68,3.72-1.05.63-.18,1.2-.39,1.86-.57a9.44,9.44,0,0,1,6,.16,21.58,21.58,0,0,1,3.59,1.7c1.14.64,2.24,1.31,3.37,1.89a27.84,27.84,0,0,0,3.5,1.5,16.88,16.88,0,0,0,7.39,1,10.56,10.56,0,0,0,3.53-1,8.54,8.54,0,0,0,.77-.44,2.46,2.46,0,0,0,.55-.59,7.65,7.65,0,0,0,.83-1.62c.91-2.35,1.45-4.93,2.65-7.33a7.54,7.54,0,0,1,2.63-3.14,9.47,9.47,0,0,1,3.87-1.24,14.9,14.9,0,0,1,7.77,1.55,24.36,24.36,0,0,1,6.48,4.49,16.73,16.73,0,0,1,4.46,6.52,27.07,27.07,0,0,1,1.1,7.79c0,1.3,0,2.6,0,3.89s.07,2.6,0,3.9c-.08,2.59-.19,5.17-.15,7.74a40,40,0,0,0,.7,7.63,13,13,0,0,0,1.24,3.53,4.64,4.64,0,0,0,2.63,2.33c4.76,1.94,9.86,2.88,14.88,4.22a43.67,43.67,0,0,1,7.37,2.62,31,31,0,0,1,6.61,4.21c2,1.61,4.18,3,6.24,4.59a18.52,18.52,0,0,1,5.39,5.72,6,6,0,0,1,.61,4,9.52,9.52,0,0,1-1.71,3.61,35.82,35.82,0,0,1-5.48,5.58c-7.82,6.91-17.06,11.86-26.2,16.66Z"/><path d="M158.07,103.21a11.11,11.11,0,0,0-2.82-8.5,14.24,14.24,0,0,0-7.45-4.57,15.83,15.83,0,0,0-8.56.7,22.84,22.84,0,0,0-7.54,4.47,42.66,42.66,0,0,0-3.23,3.26c-1.1,1.18-2.18,2.35-3.18,3.53a27.69,27.69,0,0,0-4.7,7.18,10.41,10.41,0,0,0-.76,3.55,2.52,2.52,0,0,0,.61,2,7.69,7.69,0,0,0,2.54,1.64,36.08,36.08,0,0,0,4.07,1.46,63.88,63.88,0,0,1,9.78,3.47A19.68,19.68,0,0,1,142,125a17.78,17.78,0,0,1,3.74,5.46,24.89,24.89,0,0,1,1.79,11.93,42.74,42.74,0,0,1-2.35,10.84,49.94,49.94,0,0,1-4.74,9.8q-.73,1.17-1.54,2.31c-.54.75-1.12,1.5-1.78,2.28a40.23,40.23,0,0,1-4,4c-2.69,2.36-5.29,4.3-7.35,6.21a15.69,15.69,0,0,0-4.23,5.6,11,11,0,0,0-.38,6,10.32,10.32,0,0,0,2.89,5.24,29.25,29.25,0,0,0,3.23,2.39,18.58,18.58,0,0,1,5.12,5,13.54,13.54,0,0,1,1.75,4.19,14.26,14.26,0,0,1,.29,4.3,19.5,19.5,0,0,1-2,6.88,30.1,30.1,0,0,1-3.26,5.19,32.46,32.46,0,0,1-4.07,4.37,47.36,47.36,0,0,1-4.25,3.43c-1.4,1-2.76,2-4,2.88s-2.48,1.79-3.56,2.68a24.66,24.66,0,0,0-2.89,2.69l-.31.34-.07.08,0,0,.08-.1a2.08,2.08,0,0,0,.24-.58,1.28,1.28,0,0,0,.07-.78,6,6,0,0,0,1.05,1.76,16.87,16.87,0,0,0,2.51,2.51,32.72,32.72,0,0,0,3.39,2.33c1.32.83,2.81,1.73,4.37,2.82a26.92,26.92,0,0,1,4.73,4.14,16.56,16.56,0,0,1,2.05,2.84,16.88,16.88,0,0,1,.85,1.55l.69,1.63a20.58,20.58,0,0,1,1.23,6.71,25.69,25.69,0,0,1-.67,6.22,35.08,35.08,0,0,1-1.73,5.52,58.37,58.37,0,0,1-5,9.55l-1.33,2.07-1.24,2q-1.22,2-2.26,3.91a39.21,39.21,0,0,0-1.8,3.86,21.19,21.19,0,0,0-1.19,3.73,13.13,13.13,0,0,0-.32,3.47,10.94,10.94,0,0,0,.67,3.14l-3.14-2.74a18.82,18.82,0,0,1,4.07,1.89,19.6,19.6,0,0,1,3.38,2.72,21.26,21.26,0,0,1,4.54,6.92,20.94,20.94,0,0,1,1.19,3.91,21.46,21.46,0,0,1,.45,4,25.69,25.69,0,0,1-1.05,7.66,32.82,32.82,0,0,1-2.87,6.82,46.31,46.31,0,0,1-3.93,5.81,27.41,27.41,0,0,0-3.12,4.74,11.18,11.18,0,0,0-1,4.77,16.9,16.9,0,0,0,4.06,10,17.17,17.17,0,0,0,4.19,3.74,22.85,22.85,0,0,0,5.46,2.18c2,.57,4.14,1,6.3,1.66a22.32,22.32,0,0,1,6.31,2.78,13.75,13.75,0,0,1,1.39,1.09,7.37,7.37,0,0,1,1.26,1.39,10.63,10.63,0,0,1,1.39,3.26c.57,2.19.72,4.33,1.38,6.33l-.65.27c-.85-2.06-1.16-4.23-1.84-6.24a9.57,9.57,0,0,0-1.39-2.78,8.76,8.76,0,0,0-2.39-2c-3.66-2.17-8.06-2.57-12.28-3.49a24.68,24.68,0,0,1-6.23-2.08,19.72,19.72,0,0,1-5.16-4.09,20.36,20.36,0,0,1-5.49-11.8,14.72,14.72,0,0,1,1-6.55,29.65,29.65,0,0,1,3.34-5.66,33,33,0,0,0,5.68-11.37,19,19,0,0,0-.73-12.38,14.42,14.42,0,0,0-8.83-8.3l-.24-.07-.09-.22a16.44,16.44,0,0,1-1.26-4.86,18.6,18.6,0,0,1,.25-5,34.2,34.2,0,0,1,3.32-9.29c1.48-2.92,3.21-5.71,4.92-8.46a52.52,52.52,0,0,0,4.33-8.59,28.92,28.92,0,0,0,1.36-4.57,19.36,19.36,0,0,0,.45-4.69,14.05,14.05,0,0,0-.88-4.56l-.46-1.06a10.41,10.41,0,0,0-.57-1,10.81,10.81,0,0,0-1.37-1.87c-2.09-2.33-4.9-4-7.66-5.66a28.13,28.13,0,0,1-7.65-6.3,11.92,11.92,0,0,1-2.42-4.52,5.65,5.65,0,0,1,0-2.75,6.14,6.14,0,0,1,1.45-2.28,45.32,45.32,0,0,1,7.5-6.41,92.68,92.68,0,0,0,7.68-5.87,25,25,0,0,0,5.8-7.43,12.68,12.68,0,0,0,1.33-4.4,6.76,6.76,0,0,0-1-4.25,12.18,12.18,0,0,0-3.31-3.18,33,33,0,0,1-3.93-3,17.33,17.33,0,0,1-3.94-18.69,22.26,22.26,0,0,1,6-7.88c2.46-2.19,5.12-4.08,7.56-6.16a33.68,33.68,0,0,0,3.43-3.33,33,33,0,0,0,2.87-3.83,45.09,45.09,0,0,0,4.33-8.57,36.86,36.86,0,0,0,2.28-9.3,19.35,19.35,0,0,0-1.12-9.32,12.47,12.47,0,0,0-2.54-3.89,14.75,14.75,0,0,0-3.81-2.74,70.62,70.62,0,0,0-9-3.49,38.19,38.19,0,0,1-4.56-1.88,11.18,11.18,0,0,1-4-3.1,7,7,0,0,1-1.27-4.92,14.65,14.65,0,0,1,1.28-4.83,30.35,30.35,0,0,1,5.74-8c1.12-1.19,2.29-2.33,3.45-3.46a43,43,0,0,1,3.64-3.3,25.34,25.34,0,0,1,8.73-4.54,18,18,0,0,1,9.83-.14,15.58,15.58,0,0,1,8,5.68,12.16,12.16,0,0,1,2.39,9.46Z"/><path d="M197.33,45.14a11.54,11.54,0,0,0,4.54-3.22,13.82,13.82,0,0,0,2.63-4.78c1.17-3.5,1.38-7.41,2.55-11.47A24,24,0,0,1,225.93,9.07c2.16-.37,4.08-.49,5.66-.86l.57-.14c.17-.05.22-.1.34-.14a1.48,1.48,0,0,0,.33-.16,2.33,2.33,0,0,0,.36-.21,11.94,11.94,0,0,0,1.7-1.39c.61-.57,1.29-1.27,2-2a20.5,20.5,0,0,1,2.74-2.29A10.28,10.28,0,0,1,244,.11a7.28,7.28,0,0,1,1.32-.1H246l.39,0,1.54.09a76.61,76.61,0,0,1,12.27,1.81,79.41,79.41,0,0,1,11.93,3.68,77,77,0,0,1,11.29,5.54l1.35.82c.47.29,1,.66,1.37.91a7.56,7.56,0,0,0,1.51.89,2.15,2.15,0,0,0,.74.06,7.72,7.72,0,0,0,1.64-.29c.69-.18,1.49-.44,2.4-.75l2.76-.94c1.82-.63,3.74-1.3,5.72-1.92a56.7,56.7,0,0,1,6.3-1.64,29.83,29.83,0,0,1,7.27-.62,17.86,17.86,0,0,1,8.32,2.4c.33.2.68.39,1,.61l.92.73.9.75c.28.25.5.51.75.76a21.31,21.31,0,0,1,2.55,3.23A29.83,29.83,0,0,1,332,22.81c.72,2.13,1.26,4.13,1.78,6,1,3.65,2.08,6.72,3.57,8.5a7.34,7.34,0,0,0,2.5,1.94,22.82,22.82,0,0,0,4.27,1.5c1.72.47,3.66.91,5.77,1.52a33.24,33.24,0,0,1,6.75,2.66c.58.35,1.16.71,1.74,1.07s1.12.84,1.67,1.27l.41.33c.14.11.37.35.55.52a9.27,9.27,0,0,1,1.07,1.23,11.17,11.17,0,0,1,1.56,2.87,13.33,13.33,0,0,1,.73,5.35,22.8,22.8,0,0,1-.62,4c-.56,2.33-1.25,4.26-1.79,6a20.85,20.85,0,0,0-1,4.29,5.56,5.56,0,0,0,0,.63.92.92,0,0,0-.21-.3s-.17-.06,0,0a3.33,3.33,0,0,0,1.1.07,24.34,24.34,0,0,0,4.59-1c1.79-.5,3.74-1.12,6-1.62a27,27,0,0,1,3.72-.58,15.37,15.37,0,0,1,4.68.32,11.55,11.55,0,0,1,5,2.59l.53.48c.16.16.29.32.43.48.28.32.56.63.81,1a13.18,13.18,0,0,1,1.31,2.23,14,14,0,0,1,1.22,4.64,19.66,19.66,0,0,1-.09,4.07,37.73,37.73,0,0,1-1.51,6.6L386.74,97a28.12,28.12,0,0,0-1.11,4.79,6.19,6.19,0,0,0,.25,3.16,3.58,3.58,0,0,0,.27.52s0,0,0,0l0,0h0c-.05.07.29.2.78.34a29,29,0,0,0,5,.25,26.06,26.06,0,0,1,3.47.22,13,13,0,0,1,4.2,1.23c.38.2.75.42,1.11.64a10.72,10.72,0,0,1,1,.84,6.16,6.16,0,0,1,.91.94,7.62,7.62,0,0,1,.76,1.05,8.51,8.51,0,0,1,1.25,5.3,11.69,11.69,0,0,1-1.28,4.18,22.47,22.47,0,0,1-1.83,3c-1.26,1.77-2.55,3.28-3.71,4.77a31.27,31.27,0,0,0-3,4.3,5.34,5.34,0,0,0-.85,3.51c.13.58.11.53.22.69a2.5,2.5,0,0,0,1.43.35,25.49,25.49,0,0,0,5.28-.68,41.12,41.12,0,0,1,6.14-.91c.29,0,.56,0,.86,0l.48,0a2.78,2.78,0,0,1,1.2.35,3.58,3.58,0,0,1,.54.4,2.6,2.6,0,0,1,.34.43,2.84,2.84,0,0,1,.25.44l.13.36a2.77,2.77,0,0,1,.14.65,3.59,3.59,0,0,1,0,.55,13.07,13.07,0,0,1-.47,3.36,50.57,50.57,0,0,1-1.89,5.76c-.74,1.85-1.52,3.67-2.35,5.47s-1.65,3.57-2.67,5.33l-.61-.33c.82-1.71,1.51-3.58,2.2-5.4s1.31-3.68,1.89-5.55a52.14,52.14,0,0,0,1.47-5.64,12,12,0,0,0,.25-2.82c0-.44-.17-.89-.36-1,0-.05-.12,0-.17,0H408c-.23,0-.47,0-.71,0-3.82.4-7.49,2-11.55,2.27a6,6,0,0,1-3.07-.59,3.82,3.82,0,0,1-1.23-1.09,4.77,4.77,0,0,1-.67-1.45,8.46,8.46,0,0,1,.73-6c1.72-3.66,4.4-6.61,6.51-9.85a11.65,11.65,0,0,0,2.18-5.14,3.94,3.94,0,0,0-.64-2.5,3.28,3.28,0,0,0-.41-.53,2.38,2.38,0,0,0-.48-.46,6.14,6.14,0,0,0-.52-.41l-.59-.32a12.9,12.9,0,0,0-5.55-.76,34.9,34.9,0,0,1-6-.14,7,7,0,0,1-2.93-1.12l-.33-.23-.29-.29c-.19-.19-.39-.38-.56-.59a8.87,8.87,0,0,1-.83-1.32,11.06,11.06,0,0,1-1-6c.33-4,1.7-7.77,2.72-11.52a35.84,35.84,0,0,0,1.19-5.66,10.1,10.1,0,0,0-.69-5.45,5.79,5.79,0,0,0-4-3.31,12.65,12.65,0,0,0-5.55.36c-3.75.88-7.39,2.5-11.45,3a10.4,10.4,0,0,1-3.11-.13,6.52,6.52,0,0,1-2.89-1.39,5.89,5.89,0,0,1-1.83-2.67,8.39,8.39,0,0,1-.36-3.14,26,26,0,0,1,1.25-5.89c.57-1.89,1.2-3.74,1.63-5.6a9.86,9.86,0,0,0,.09-5.41,4.42,4.42,0,0,0-1.54-2c-.38-.28-.72-.59-1.12-.84l-1.2-.73c-3.35-1.78-7.21-2.48-11-3.48a28.24,28.24,0,0,1-5.65-2.07,14.29,14.29,0,0,1-4.75-3.85,20.14,20.14,0,0,1-2.92-5.3,56,56,0,0,1-1.79-5.67c-1-3.77-1.95-7.6-4-10.82a12.31,12.31,0,0,0-3.87-4,11.72,11.72,0,0,0-5.3-1.55,23.74,23.74,0,0,0-5.7.42A51.14,51.14,0,0,0,302.69,16c-3.75,1.09-7.4,2.44-11.26,3.47a9.75,9.75,0,0,1-6.12-.2,14.08,14.08,0,0,1-2.62-1.58c-.79-.58-1.6-1.08-2.42-1.62A71.34,71.34,0,0,0,270,10.68a78.09,78.09,0,0,0-22.53-5.86,14.32,14.32,0,0,0-2.81-.15,5.94,5.94,0,0,0-2.52,1,44.38,44.38,0,0,0-4.45,3.73,14.72,14.72,0,0,1-2.46,1.76,8.68,8.68,0,0,1-2.91,1c-2,.34-4,.38-5.86.62a21.15,21.15,0,0,0-17.1,13.72C208,30.1,207.52,34.06,206,37.76a15.19,15.19,0,0,1-3.31,5,12.51,12.51,0,0,1-5.15,3.06Z"/><path d="M252.29,103.2a13.36,13.36,0,0,0,4.4-4.91,42.54,42.54,0,0,0,2.8-6.14c1.62-4.24,3-8.6,4.6-13a52.57,52.57,0,0,1,2.86-6.51,22,22,0,0,1,2-3.16,12.72,12.72,0,0,1,2.9-2.84A9.19,9.19,0,0,1,276,65.12a17.83,17.83,0,0,1,4,0,51.36,51.36,0,0,0,6.5.64l1.64-.07.78,1.69a27.54,27.54,0,0,1,2.15,14.07,79.5,79.5,0,0,1-2.66,13.22c-1.13,4.19-2.26,8.26-3,12.23-.17,1-.3,2-.43,2.94a24.42,24.42,0,0,0-.15,2.78,12.32,12.32,0,0,0,.87,4.77,10.09,10.09,0,0,0,2.82,3.57c1.36,1.17,3.06,2.32,4.9,3.69a24.35,24.35,0,0,1,5.6,5.45,15.3,15.3,0,0,1,2,4,20,20,0,0,1,.88,4.09c.15,1.3.18,2.52.2,3.66,0,.6,0,1.06,0,1.74s0,1.28-.08,1.91a62.83,62.83,0,0,1-1,6.95c-.43,2.19-.88,4.26-1.24,6.26a32.79,32.79,0,0,0-.62,5.6,9.91,9.91,0,0,0,.7,4.19,6.73,6.73,0,0,1,.42.72c.15.23.38.42.53.64l.13.17.12.1a1.39,1.39,0,0,0,.25.2,4.7,4.7,0,0,0,.7.43,18,18,0,0,0,4.71,1.42c1.91.36,4,.65,6.27,1.06,1.14.21,2.33.44,3.61.79a17.79,17.79,0,0,1,4.24,1.7,11.35,11.35,0,0,1,2.38,1.85l.57.62c.18.23.36.48.53.72a9.15,9.15,0,0,1,.87,1.58,11.8,11.8,0,0,1,.55,1.69,14.86,14.86,0,0,1,.22,1.62c0,.48,0,1,0,1.46l-.12,1.1a22.55,22.55,0,0,1-2.62,7.95,38,38,0,0,1-4.25,6.19,120.19,120.19,0,0,1-9.43,9.7,69.63,69.63,0,0,0-8.08,8.68,11.44,11.44,0,0,0-1.94,3.82,4,4,0,0,0,.32,2.89,4.19,4.19,0,0,0,.84,1.33,8.13,8.13,0,0,0,1.5,1.25,32.77,32.77,0,0,0,4.92,2.5,47.39,47.39,0,0,1,6.51,3.26,17.07,17.07,0,0,1,3.56,3,13.12,13.12,0,0,1,2.68,4.61,16,16,0,0,1,.75,4.72,21.1,21.1,0,0,1-.36,4.26,29.49,29.49,0,0,1-2.5,7.39,73.18,73.18,0,0,1-7.57,11.61c-1.28,1.72-2.51,3.38-3.61,5q-.82,1.24-1.54,2.47l-.7,1.26-.77,1.45c-1,1.89-2,3.71-2.79,5.49a24.92,24.92,0,0,0-1.79,5.06,4.73,4.73,0,0,0,.06,3.1.61.61,0,0,1,.08.2,1,1,0,0,1,.18.17c.09.16.21.21.31.32a3.25,3.25,0,0,0,1.29.44,13.15,13.15,0,0,0,2.46.12l3.21-.1a25.54,25.54,0,0,1,3.88.15,16.41,16.41,0,0,1,2.2.42,15.67,15.67,0,0,1,2.13.79,23.92,23.92,0,0,1,6.5,4.3,19.85,19.85,0,0,1,4.71,6.57,17.15,17.15,0,0,1,1.31,8.17,25.1,25.1,0,0,1-1.79,7.3c-.43,1.1-.89,2.16-1.37,3.18s-.91,1.95-1.51,3.09a45.53,45.53,0,0,1-3.82,5.84c-2.71,3.59-5.59,6.83-8.23,10.11-1.32,1.64-2.58,3.29-3.72,5a24,24,0,0,0-2.75,5.1,11.86,11.86,0,0,0-.63,2.55,8.32,8.32,0,0,0,.12,2.45,7.67,7.67,0,0,0,1,2.3l.16.28.17.2.33.42.42.34.21.18.26.14a13.84,13.84,0,0,0,5.45,1.36,27.84,27.84,0,0,1,6.74,1.23,8.32,8.32,0,0,1,3.25,2.11,8.71,8.71,0,0,1,1.09,1.58,10.31,10.31,0,0,1,.76,1.62,9.71,9.71,0,0,1,.12,7.09,12.53,12.53,0,0,1-4.17,5.41,18.07,18.07,0,0,1-5.9,3l-.19-.57a17.33,17.33,0,0,0,5.48-3.12,11.47,11.47,0,0,0,3.56-5.09,8.46,8.46,0,0,0-.34-6.08,9.56,9.56,0,0,0-1.63-2.63,6.5,6.5,0,0,0-2.61-1.56,25.71,25.71,0,0,0-6.29-.88,16.18,16.18,0,0,1-6.41-1.37l-.38-.19-.34-.25c-.23-.17-.46-.33-.68-.51a9.07,9.07,0,0,1-1.09-1.3,10.3,10.3,0,0,1-1.44-3,10.94,10.94,0,0,1-.35-3.32,14.43,14.43,0,0,1,.63-3.25,26.42,26.42,0,0,1,2.83-5.89c1.14-1.85,2.41-3.61,3.72-5.33,2.61-3.44,5.38-6.75,7.86-10.24a42.4,42.4,0,0,0,3.36-5.44c.92-1.91,1.79-3.9,2.52-5.9a22.15,22.15,0,0,0,1.4-6.16,12.78,12.78,0,0,0-1.07-6.1,17.37,17.37,0,0,0-9-8.37,13,13,0,0,0-6.14-.83,38.86,38.86,0,0,1-6.53.08,8.43,8.43,0,0,1-3.23-1,6.4,6.4,0,0,1-1.34-1.09l-.59-.63-.46-.74a7.21,7.21,0,0,1-.69-1.58,11.13,11.13,0,0,1-.28-1.68,10.43,10.43,0,0,1,0-1.68l.07-.83.15-.82c.88-4.35,3-8.23,4.91-12.06,3.68-7.93,10.13-14.11,13.78-21.8a24,24,0,0,0,2-6,13,13,0,0,0-.22-6.12,8.73,8.73,0,0,0-3.89-4.52,42.38,42.38,0,0,0-5.72-2.8,38.1,38.1,0,0,1-5.84-3,11.63,11.63,0,0,1-4.45-5,10,10,0,0,1-.77-6.66,17.07,17.07,0,0,1,2.86-6,70.6,70.6,0,0,1,8.87-9.52,115,115,0,0,0,9-9.16c2.7-3.24,5.09-6.94,5.61-11.09a5.08,5.08,0,0,0-.21-2.89,4.55,4.55,0,0,0-1.94-2.06,19.47,19.47,0,0,0-6-1.83c-2.1-.39-4.24-.69-6.37-1.13a22.7,22.7,0,0,1-6.26-2.08,9.1,9.1,0,0,1-2.65-2.11c-.34-.45-.74-.86-1-1.34l-.81-1.49a15.34,15.34,0,0,1-1.09-6.54c.13-4.41,1.28-8.62,2.14-12.82a57.44,57.44,0,0,0,1-6.32,42,42,0,0,0,0-6.37,11.91,11.91,0,0,0-2-5.84,20.05,20.05,0,0,0-4.46-4.44c-1.68-1.32-3.46-2.56-5.09-4a14.49,14.49,0,0,1-3.88-5.34,16.87,16.87,0,0,1-1.05-6.5,36.93,36.93,0,0,1,.8-6.48c.87-4.25,2.18-8.38,3.41-12.5a75.32,75.32,0,0,0,2.9-12.5,24.93,24.93,0,0,0-1.49-12.5l.34.23a56,56,0,0,1-6.86-.94c-2.21-.32-4.58-.37-6.41.87A10.51,10.51,0,0,0,270.75,71a20,20,0,0,0-1.92,2.78,51.24,51.24,0,0,0-3,6.14c-1.77,4.22-3.28,8.55-5.14,12.77a43.39,43.39,0,0,1-3.21,6.13,14.07,14.07,0,0,1-4.93,4.91Z"/><path d="M135.29,188.26a30.23,30.23,0,0,1,11.84-5.52c1.08-.2,2.17-.44,3.27-.6s2.21-.25,3.32-.33,2.23,0,3.34,0l3.34.22c1.11.15,2.22.3,3.34.43l3.33.64c1.09.29,2.17.64,3.25,1s2.06,1,3.07,1.49,1.92,1.25,2.84,1.9,1.74,1.49,2.56,2.27,1.49,1.74,2.19,2.61a25.11,25.11,0,0,1,1.65,3l-.38.33c-1-.51-1.91-1.09-2.82-1.62s-1.85-1-2.74-1.47-1.84-.89-2.75-1.31L171.16,190c-.94-.35-1.86-.74-2.78-1.13s-1.86-.74-2.79-1.13l-2.85-1c-1-.28-2-.53-3-.79l-3-.52c-1-.11-2-.19-3.06-.29s-2-.06-3.08-.09-2.05.11-3.09.17a30.79,30.79,0,0,0-12,3.47Z"/><path d="M281.29,187.68a30.79,30.79,0,0,0-12-3.47c-1-.05-2.06-.15-3.09-.17s-2.06,0-3.08.09-2,.18-3.06.29l-3,.52c-1,.25-2,.51-3,.79l-2.85,1c-.93.39-1.85.79-2.79,1.13s-1.84.78-2.78,1.13l-2.77,1.19c-.92.42-1.79.91-2.75,1.31s-1.79,1-2.74,1.47-1.79,1.11-2.82,1.62l-.38-.33a25.11,25.11,0,0,1,1.65-3c.7-.88,1.39-1.79,2.19-2.61s1.66-1.56,2.56-2.27,1.86-1.32,2.84-1.9,2-1.06,3.07-1.49,2.15-.73,3.25-1l3.33-.64c1.12-.13,2.23-.28,3.34-.43l3.34-.22c1.12,0,2.23,0,3.34,0s2.22.22,3.32.33,2.19.4,3.27.6a30.23,30.23,0,0,1,11.84,5.52Z"/><path d="M176.6,207.53c-.73-1.34-3-2.52-5.46-3a19.17,19.17,0,0,0-7.84.11,28.09,28.09,0,0,0-4,1.19c-.66.24-1.32.52-2,.81s-1.36.6-1.81.87a35.77,35.77,0,0,0-3.47,2.46c-1.16.91-2.32,1.86-3.44,2.81v-2.46c1.93,2,3.94,4,6,5.82,1,.93,2.07,1.85,3.14,2.7.54.42,1.08.83,1.63,1.18.28.19.53.31.82.47l.93.42a26.85,26.85,0,0,0,16.3,1.57,27.69,27.69,0,0,1-16.88,0l-1-.35c-.35-.15-.75-.3-1.07-.48-.67-.34-1.3-.72-1.91-1.11-1.23-.78-2.39-1.61-3.53-2.46-2.29-1.7-4.5-3.47-6.69-5.31l-1.31-1.1,1.3-1.36c1.07-1.11,2.14-2.19,3.26-3.25a39.27,39.27,0,0,1,3.61-3.14,12.71,12.71,0,0,1,1.12-.73l1-.59c.69-.39,1.39-.77,2.11-1.12a33.09,33.09,0,0,1,4.52-1.85A24.86,24.86,0,0,1,172,198.5a18.55,18.55,0,0,1,5.27,1.25,12.15,12.15,0,0,1,5,3.66Z"/><path d="M233.64,203.41a12.15,12.15,0,0,1,5-3.66,18.55,18.55,0,0,1,5.27-1.25A24.86,24.86,0,0,1,254,199.63a33.09,33.09,0,0,1,4.52,1.85c.72.35,1.42.73,2.11,1.12l1,.59a12.72,12.72,0,0,1,1.12.73,39.27,39.27,0,0,1,3.61,3.14c1.12,1.07,2.19,2.14,3.26,3.25l1.3,1.36-1.31,1.1c-2.19,1.84-4.4,3.61-6.69,5.31-1.15.85-2.31,1.68-3.53,2.46-.61.39-1.24.77-1.91,1.11-.32.18-.72.33-1.07.48l-1,.35a27.69,27.69,0,0,1-16.88,0,26.85,26.85,0,0,0,16.3-1.57l.93-.42c.28-.16.54-.28.82-.47.55-.35,1.09-.76,1.63-1.18,1.07-.84,2.12-1.76,3.14-2.7,2.05-1.87,4.06-3.84,6-5.82v2.46c-1.12-1-2.28-1.9-3.44-2.81a35.77,35.77,0,0,0-3.47-2.46c-.45-.26-1.15-.57-1.81-.87s-1.32-.56-2-.81a28.09,28.09,0,0,0-4-1.19,19.17,19.17,0,0,0-7.84-.11c-2.51.47-4.72,1.66-5.46,3Z"/><path d="M245.43,290.46a28.74,28.74,0,0,1-7.7.91c-1.31,0-2.63-.12-3.94-.27a7.6,7.6,0,0,1-1.93-.4c-.6-.24-1.18-.42-1.76-.6-2.29-.71-4.52-1.15-6-.51a5,5,0,0,0-.6.29l-.87.48c-.58.31-1.16.6-1.76.89l-.92.42a8,8,0,0,1-1.1.41,5.55,5.55,0,0,1-2.83.12,13.49,13.49,0,0,1-4-1.86,6.06,6.06,0,0,0-2.63-1,6.9,6.9,0,0,0-2.84.56c-1.07.39-2.2.94-3.57,1.38a25.67,25.67,0,0,1-8,1.09c-2.59,0-5-.11-7.33.11l-.37-4a3.65,3.65,0,0,1,1,.11c.2.07.4.15.59.23a6,6,0,0,1,.78.47,11.26,11.26,0,0,1,1.09.9c.64.59,1.21,1.18,1.75,1.77l1.58,1.72.36.38.17.17.1.09.84.61a22,22,0,0,0,7.8,3.37,36.85,36.85,0,0,0,4.37.75,27.58,27.58,0,0,1,4.48.78l9.26,1.66c-3.11.6-6.21,1.17-9.39,1.48-.8.07-1.6.16-2.4.21a7.56,7.56,0,0,1-1.21,0c-.4,0-.8-.13-1.2-.18a43.23,43.23,0,0,1-4.82-.83,25.94,25.94,0,0,1-9.2-4l-1-.77-.34-.3-.25-.25-.44-.46-1.58-1.72c-.51-.55-1-1.08-1.53-1.54a7.52,7.52,0,0,0-.7-.59c-.11-.08-.18-.11-.21-.14a.05.05,0,0,0,.05,0,.82.82,0,0,0,.45,0l-.37-4c2.68-.25,5.27-.12,7.69-.13a21.73,21.73,0,0,0,6.8-.89c1-.32,2.15-.86,3.43-1.33a10.75,10.75,0,0,1,4.5-.79,9.93,9.93,0,0,1,4.36,1.54,10.93,10.93,0,0,0,2.76,1.4,1.53,1.53,0,0,0,.88,0,4.14,4.14,0,0,0,.66-.25l.79-.36c.53-.25,1.07-.53,1.59-.81l.78-.43a9.38,9.38,0,0,1,1.09-.53,9.54,9.54,0,0,1,4.66-.51,23,23,0,0,1,4,.91c.62.19,1.22.38,1.82.52a9.09,9.09,0,0,1,1.68.65q1.66.73,3.4,1.31A39.81,39.81,0,0,0,245.43,290.46Z"/></g></g></svg>