<svg xmlns="http://www.w3.org/2000/svg" viewBox="0 0 118.84 120.57"><defs><style>.cls-1,.cls-2,.cls-4{fill:#fff;}.cls-1,.cls-3,.cls-4{stroke:#fff;stroke-miterlimit:10;}.cls-1,.cls-3{stroke-width:0.8px;}.cls-3{fill:none;}.cls-4{stroke-width:0.13px;}</style></defs><title>Asset 1</title><g id="Layer_2" data-name="Layer 2"><g id="Layer_1-2" data-name="Layer 1"><polygon class="cls-1" points="90.96 59 35.52 114.43 34.95 103.69 24.21 104.25 24.21 94.07 13.46 94.64 14.59 84.45 4.41 84.45 70.03 18.83 100.57 49.38 90.96 59"/><line class="cls-1" x1="0.45" y1="120.09" x2="3.84" y2="85.02"/><g id="_Group_" data-name="&lt;Group&gt;"><path class="cls-2" d="M2,104.27.45,120.09l14.91-2.4c-.44,0-4.75,0-5.29-2.69s-.5-2.76-1.13-3.39c-1.7-1.7-4.53-1.13-5.09-1.7S2,104.27,2,104.27Z"/><path class="cls-3" d="M2,104.27s1.3,5.07,1.87,5.63,3.39,0,5.09,1.7c.63.63.57.57,1.13,3.39s4.85,2.69,5.29,2.69L.45,120.09Z"/><line class="cls-3" x1="15.35" y1="117.69" x2="15.39" y2="117.69"/><line class="cls-3" x1="15.39" y1="117.69" x2="35.52" y2="114.43"/></g><line class="cls-1" x1="34.95" y1="103.69" x2="94.92" y2="43.72"/><line class="cls-1" x1="25.34" y1="94.07" x2="85.3" y2="34.11"/><line class="cls-1" x1="15.16" y1="83.89" x2="75.12" y2="23.92"/><line class="cls-1" x1="106.23" y1="43.72" x2="75.68" y2="13.18"/><path class="cls-4" d="M116.73,32.66c2.31-2.31,2.88-5.54.57-7.85L94.6,2.11c-2.31-2.31-6.67-2.88-9-.57l-6,6,30.86,30.86"/></g></g></svg>